<svg width="62" height="67" viewBox="0 0 62 67" fill="none" xmlns="http://www.w3.org/2000/svg">
<path d="M30.5135 66.496C43.2161 66.496 53.5135 65.4895 53.5135 64.248C53.5135 63.0065 43.2161 62 30.5135 62C17.811 62 7.51355 63.0065 7.51355 64.248C7.51355 65.4895 17.811 66.496 30.5135 66.496Z" fill="black" fill-opacity="0.12"/>
<path d="M61.027 30.4622C61.027 30.3917 61.027 30.3272 61.027 30.2567C61.027 13.5466 47.4805 0 30.7703 0C14.0601 0 0.51355 13.5466 0.51355 30.2567C0.51355 30.3213 0.51355 30.3859 0.51355 30.4504V33.3851C0.51355 50.0953 14.0601 63.6419 30.7703 63.6419C47.4805 63.6419 61.027 50.0953 61.027 33.3851V30.4622Z" fill="#B96400"/>
<path fill-rule="evenodd" clip-rule="evenodd" d="M30.7702 54.1215C27.5479 54.1215 24.4196 53.4935 21.4849 52.2492C18.6441 51.046 16.0909 49.3262 13.8957 47.1311C11.7006 44.9359 9.98084 42.3828 8.77761 39.542C7.5333 36.6014 6.90527 33.4789 6.90527 30.2566C6.90527 27.0343 7.5333 23.9059 8.77761 20.9712C9.98084 18.1304 11.7006 15.5772 13.8957 13.3821C16.0909 11.1869 18.6441 9.46717 21.4849 8.26394C24.4254 7.01963 27.5479 6.3916 30.7702 6.3916C33.9925 6.3916 37.1209 7.01963 40.0556 8.26394C42.8964 9.46717 45.4496 11.1869 47.6448 13.3821C49.8399 15.5772 51.5597 18.1304 52.7629 20.9712C54.0072 23.9118 54.6352 27.0343 54.6352 30.2566C54.6352 33.4789 54.0072 36.6073 52.7629 39.542C51.5597 42.3828 49.8399 44.9359 47.6448 47.1311C45.4496 49.3262 42.8964 51.046 40.0556 52.2492C37.1209 53.4935 33.9925 54.1215 30.7702 54.1215Z" fill="url(#paint0_linear)"/>
<path d="M30.7703 7.57142C33.8341 7.57142 36.8041 8.1701 39.5979 9.34985C42.2978 10.4944 44.7277 12.1261 46.8114 14.2156C48.895 16.2992 50.5326 18.7291 51.6771 21.4291C52.8569 24.2229 53.4555 27.1928 53.4555 30.2566C53.4555 33.3205 52.8569 36.2904 51.6771 39.0842C50.5326 41.7841 48.9009 44.2141 46.8114 46.2977C44.7277 48.3814 42.2978 50.0189 39.5979 51.1634C36.8041 52.3432 33.8341 52.9419 30.7703 52.9419C27.7065 52.9419 24.7366 52.3432 21.9427 51.1634C19.2428 50.0189 16.8129 48.3872 14.7293 46.2977C12.6456 44.2141 11.0081 41.7841 9.86352 39.0842C8.68377 36.2904 8.08509 33.3205 8.08509 30.2566C8.08509 27.1928 8.68377 24.2229 9.86352 21.4291C11.0081 18.7291 12.6397 16.2992 14.7293 14.2156C16.8129 12.1319 19.2428 10.4944 21.9427 9.34985C24.7366 8.1701 27.7065 7.57142 30.7703 7.57142ZM30.7703 5.20605C27.3895 5.20605 24.1086 5.8693 21.0212 7.1723C18.0396 8.43422 15.3573 10.242 13.0565 12.5428C10.7557 14.8436 8.9479 17.5259 7.68597 20.5076C6.38297 23.5949 5.71973 26.87 5.71973 30.2566C5.71973 33.6374 6.38297 36.9184 7.68597 40.0057C8.9479 42.9874 10.7557 45.6697 13.0565 47.9705C15.3573 50.2713 18.0396 52.0791 21.0212 53.341C24.1086 54.644 27.3837 55.3072 30.7703 55.3072C34.1511 55.3072 37.4321 54.644 40.5194 53.341C43.501 52.0791 46.1834 50.2713 48.4842 47.9705C50.785 45.6697 52.5927 42.9874 53.8547 40.0057C55.1577 36.9184 55.8209 33.6433 55.8209 30.2566C55.8209 26.8759 55.1577 23.5949 53.8547 20.5076C52.5927 17.5259 50.785 14.8436 48.4842 12.5428C46.1834 10.242 43.501 8.43422 40.5194 7.1723C37.4321 5.8693 34.1511 5.20605 30.7703 5.20605Z" fill="url(#paint1_linear)"/>
<path d="M30.7703 5.20615C34.1511 5.20615 37.4321 5.8694 40.5194 7.1724C43.501 8.43432 46.1833 10.2421 48.4841 12.5429C50.7849 14.8437 52.5927 17.526 53.8546 20.5077C55.1576 23.595 55.8209 26.8701 55.8209 30.2567C55.8209 33.6375 55.1576 36.9185 53.8546 40.0058C52.5927 42.9875 50.7849 45.6698 48.4841 47.9706C46.1833 50.2714 43.501 52.0792 40.5194 53.3411C37.4321 54.6441 34.1569 55.3073 30.7703 55.3073C27.3895 55.3073 24.1085 54.6441 21.0212 53.3411C18.0396 52.0792 15.3573 50.2714 13.0565 47.9706C10.7556 45.6698 8.94788 42.9875 7.68595 40.0058C6.38295 36.9185 5.71971 33.6434 5.71971 30.2567C5.71971 26.876 6.38295 23.595 7.68595 20.5077C8.94788 17.526 10.7556 14.8437 13.0565 12.5429C15.3573 10.2421 18.0396 8.43432 21.0212 7.1724C24.1085 5.8694 27.3895 5.20615 30.7703 5.20615ZM30.7703 0C14.0601 0 0.51355 13.5466 0.51355 30.2567C0.51355 46.9669 14.0601 60.5135 30.7703 60.5135C47.4805 60.5135 61.027 46.9669 61.027 30.2567C61.027 13.5466 47.4805 0 30.7703 0Z" fill="url(#paint2_linear)"/>
<g clip-path="url(#clip0)">
<g filter="url(#filter0_i)">
<path d="M30.4412 37.959L20.6182 32.162L30.4352 46.001L40.2632 32.162L30.4352 37.959H30.4412ZM30.5872 14L20.7682 30.297L30.5872 36.104L40.4102 30.303L30.5872 14Z" fill="url(#paint3_linear)"/>
</g>
</g>
<defs>
<filter id="filter0_i" x="20.6182" y="14" width="19.792" height="33.001" filterUnits="userSpaceOnUse" color-interpolation-filters="sRGB">
<feFlood flood-opacity="0" result="BackgroundImageFix"/>
<feBlend mode="normal" in="SourceGraphic" in2="BackgroundImageFix" result="shape"/>
<feColorMatrix in="SourceAlpha" type="matrix" values="0 0 0 0 0 0 0 0 0 0 0 0 0 0 0 0 0 0 127 0" result="hardAlpha"/>
<feOffset dy="1"/>
<feGaussianBlur stdDeviation="0.5"/>
<feComposite in2="hardAlpha" operator="arithmetic" k2="-1" k3="1"/>
<feColorMatrix type="matrix" values="0 0 0 0 0.796078 0 0 0 0 0.439216 0 0 0 0 0.00392157 0 0 0 1 0"/>
<feBlend mode="normal" in2="shape" result="effect1_innerShadow"/>
</filter>
<linearGradient id="paint0_linear" x1="30.7702" y1="56.6936" x2="30.7702" y2="8.96004" gradientUnits="userSpaceOnUse">
<stop stop-color="#F0B100"/>
<stop offset="0.9876" stop-color="#EBA700"/>
</linearGradient>
<linearGradient id="paint1_linear" x1="30.7703" y1="5.82219" x2="30.7703" y2="55.9158" gradientUnits="userSpaceOnUse">
<stop stop-color="#C96D00"/>
<stop offset="0.5383" stop-color="#F3AC00"/>
<stop offset="0.9876" stop-color="#FFFF00"/>
</linearGradient>
<linearGradient id="paint2_linear" x1="30.7703" y1="61.1265" x2="30.7703" y2="0.611013" gradientUnits="userSpaceOnUse">
<stop offset="8e-08" stop-color="#FFC100"/>
<stop offset="0.2951" stop-color="#FFD100"/>
<stop offset="0.6566" stop-color="#FFDF00"/>
<stop offset="0.9876" stop-color="#FFE300"/>
</linearGradient>
<linearGradient id="paint3_linear" x1="30.5171" y1="45.9962" x2="30.5171" y2="13.9931" gradientUnits="userSpaceOnUse">
<stop stop-color="#FFC100"/>
<stop offset="0.9876" stop-color="#FFE300"/>
</linearGradient>
<clipPath id="clip0">
<rect width="32" height="32" fill="white" transform="translate(14.5142 14)"/>
</clipPath>
</defs>
</svg>
