<svg width="61" height="67" viewBox="0 0 61 67" fill="none" xmlns="http://www.w3.org/2000/svg">
<path d="M30.0542 67C42.7567 67 53.0542 65.8807 53.0542 64.5C53.0542 63.1193 42.7567 62 30.0542 62C17.3516 62 7.0542 63.1193 7.0542 64.5C7.0542 65.8807 17.3516 67 30.0542 67Z" fill="black" fill-opacity="0.12"/>
<path d="M60.5677 30.4622C60.5677 30.3917 60.5677 30.3272 60.5677 30.2567C60.5677 13.5466 47.0211 0 30.3109 0C13.6008 0 0.0541992 13.5466 0.0541992 30.2567C0.0541992 30.3213 0.0541992 30.3859 0.0541992 30.4504V33.3851C0.0541992 50.0953 13.6008 63.6419 30.3109 63.6419C47.0211 63.6419 60.5677 50.0953 60.5677 33.3851V30.4622Z" fill="#B96400"/>
<path fill-rule="evenodd" clip-rule="evenodd" d="M30.311 54.1215C27.0887 54.1215 23.9603 53.4935 21.0256 52.2492C18.1848 51.046 15.6317 49.3262 13.4365 47.1311C11.2413 44.9359 9.52161 42.3828 8.31838 39.542C7.07407 36.6014 6.44604 33.4789 6.44604 30.2566C6.44604 27.0343 7.07407 23.9059 8.31838 20.9712C9.52161 18.1304 11.2413 15.5772 13.4365 13.3821C15.6317 11.1869 18.1848 9.46717 21.0256 8.26394C23.9662 7.01963 27.0887 6.3916 30.311 6.3916C33.5333 6.3916 36.6617 7.01963 39.5964 8.26394C42.4372 9.46717 44.9904 11.1869 47.1855 13.3821C49.3807 15.5772 51.1004 18.1304 52.3036 20.9712C53.548 23.9118 54.176 27.0343 54.176 30.2566C54.176 33.4789 53.548 36.6073 52.3036 39.542C51.1004 42.3828 49.3807 44.9359 47.1855 47.1311C44.9904 49.3262 42.4372 51.046 39.5964 52.2492C36.6617 53.4935 33.5333 54.1215 30.311 54.1215Z" fill="url(#paint0_linear)"/>
<path d="M30.3108 7.57142C33.3747 7.57142 36.3446 8.1701 39.1384 9.34985C41.8383 10.4944 44.2683 12.1261 46.3519 14.2156C48.4356 16.2992 50.0731 18.7291 51.2176 21.4291C52.3974 24.2229 52.9961 27.1928 52.9961 30.2566C52.9961 33.3205 52.3974 36.2904 51.2176 39.0842C50.0731 41.7841 48.4414 44.2141 46.3519 46.2977C44.2683 48.3814 41.8383 50.0189 39.1384 51.1634C36.3446 52.3432 33.3747 52.9419 30.3108 52.9419C27.247 52.9419 24.2771 52.3432 21.4833 51.1634C18.7833 50.0189 16.3534 48.3872 14.2698 46.2977C12.1861 44.2141 10.5486 41.7841 9.40405 39.0842C8.2243 36.2904 7.62562 33.3205 7.62562 30.2566C7.62562 27.1928 8.2243 24.2229 9.40405 21.4291C10.5486 18.7291 12.1803 16.2992 14.2698 14.2156C16.3534 12.1319 18.7833 10.4944 21.4833 9.34985C24.2771 8.1701 27.247 7.57142 30.3108 7.57142ZM30.3108 5.20605C26.9301 5.20605 23.6491 5.8693 20.5618 7.1723C17.5801 8.43422 14.8978 10.242 12.597 12.5428C10.2962 14.8436 8.48842 17.5259 7.2265 20.5076C5.9235 23.5949 5.26025 26.87 5.26025 30.2566C5.26025 33.6374 5.9235 36.9184 7.2265 40.0057C8.48842 42.9874 10.2962 45.6697 12.597 47.9705C14.8978 50.2713 17.5801 52.0791 20.5618 53.341C23.6491 54.644 26.9242 55.3072 30.3108 55.3072C33.6916 55.3072 36.9726 54.644 40.0599 53.341C43.0416 52.0791 45.7239 50.2713 48.0247 47.9705C50.3255 45.6697 52.1333 42.9874 53.3952 40.0057C54.6982 36.9184 55.3614 33.6433 55.3614 30.2566C55.3614 26.8759 54.6982 23.5949 53.3952 20.5076C52.1333 17.5259 50.3255 14.8436 48.0247 12.5428C45.7239 10.242 43.0416 8.43422 40.0599 7.1723C36.9726 5.8693 33.6916 5.20605 30.3108 5.20605Z" fill="url(#paint1_linear)"/>
<path d="M30.3109 5.20615C33.6917 5.20615 36.9727 5.8694 40.06 7.1724C43.0417 8.43432 45.724 10.2421 48.0248 12.5429C50.3256 14.8437 52.1334 17.526 53.3953 20.5077C54.6983 23.595 55.3615 26.8701 55.3615 30.2567C55.3615 33.6375 54.6983 36.9185 53.3953 40.0058C52.1334 42.9875 50.3256 45.6698 48.0248 47.9706C45.724 50.2714 43.0417 52.0792 40.06 53.3411C36.9727 54.6441 33.6976 55.3073 30.3109 55.3073C26.9302 55.3073 23.6492 54.6441 20.5619 53.3411C17.5802 52.0792 14.8979 50.2714 12.5971 47.9706C10.2963 45.6698 8.48852 42.9875 7.2266 40.0058C5.9236 36.9185 5.26036 33.6434 5.26036 30.2567C5.26036 26.876 5.9236 23.595 7.2266 20.5077C8.48852 17.526 10.2963 14.8437 12.5971 12.5429C14.8979 10.2421 17.5802 8.43432 20.5619 7.1724C23.6492 5.8694 26.9302 5.20615 30.3109 5.20615ZM30.3109 0C13.6008 0 0.0541992 13.5466 0.0541992 30.2567C0.0541992 46.9669 13.6008 60.5135 30.3109 60.5135C47.0211 60.5135 60.5677 46.9669 60.5677 30.2567C60.5677 13.5466 47.0211 0 30.3109 0Z" fill="url(#paint2_linear)"/>
<g filter="url(#filter0_i)">
<path fill-rule="evenodd" clip-rule="evenodd" d="M17.805 22.3095C16.7098 23.0542 16.0542 24.2928 16.0542 25.6172V36.8109C16.0542 38.1749 16.7492 39.4448 17.898 40.18L27.5684 46.3691C28.2121 46.7811 28.9604 47 29.7246 47H31.3838C32.148 47 32.8963 46.7811 33.54 46.3691L43.2104 40.18C44.3592 39.4448 45.0542 38.1749 45.0542 36.8109V25.6172C45.0542 24.2928 44.3986 23.0542 43.3034 22.3095L33.5723 15.6923C32.9089 15.2412 32.1252 15 31.323 15H29.7854C28.9832 15 28.1995 15.2412 27.5361 15.6923L17.805 22.3095ZM29.6789 22.2191L28.0542 20.9194V23V39V41.0806L29.6789 39.7809L34.6789 35.7809L35.5513 35.0829L34.7613 34.2929L31.4684 31L34.7613 27.7071L35.5513 26.9171L34.6789 26.2191L29.6789 22.2191ZM32.5571 27.0829L30.0542 29.5858V25.0806L32.5571 27.0829ZM30.0542 36.9194V32.4142L32.5571 34.9171L30.0542 36.9194Z" fill="#C4C4C4"/>
<path fill-rule="evenodd" clip-rule="evenodd" d="M17.805 22.3095C16.7098 23.0542 16.0542 24.2928 16.0542 25.6172V36.8109C16.0542 38.1749 16.7492 39.4448 17.898 40.18L27.5684 46.3691C28.2121 46.7811 28.9604 47 29.7246 47H31.3838C32.148 47 32.8963 46.7811 33.54 46.3691L43.2104 40.18C44.3592 39.4448 45.0542 38.1749 45.0542 36.8109V25.6172C45.0542 24.2928 44.3986 23.0542 43.3034 22.3095L33.5723 15.6923C32.9089 15.2412 32.1252 15 31.323 15H29.7854C28.9832 15 28.1995 15.2412 27.5361 15.6923L17.805 22.3095ZM29.6789 22.2191L28.0542 20.9194V23V39V41.0806L29.6789 39.7809L34.6789 35.7809L35.5513 35.0829L34.7613 34.2929L31.4684 31L34.7613 27.7071L35.5513 26.9171L34.6789 26.2191L29.6789 22.2191ZM32.5571 27.0829L30.0542 29.5858V25.0806L32.5571 27.0829ZM30.0542 36.9194V32.4142L32.5571 34.9171L30.0542 36.9194Z" fill="url(#paint3_linear)"/>
</g>
<defs>
<filter id="filter0_i" x="16.0542" y="15" width="29" height="33" filterUnits="userSpaceOnUse" color-interpolation-filters="sRGB">
<feFlood flood-opacity="0" result="BackgroundImageFix"/>
<feBlend mode="normal" in="SourceGraphic" in2="BackgroundImageFix" result="shape"/>
<feColorMatrix in="SourceAlpha" type="matrix" values="0 0 0 0 0 0 0 0 0 0 0 0 0 0 0 0 0 0 127 0" result="hardAlpha"/>
<feOffset dy="1"/>
<feGaussianBlur stdDeviation="0.5"/>
<feComposite in2="hardAlpha" operator="arithmetic" k2="-1" k3="1"/>
<feColorMatrix type="matrix" values="0 0 0 0 0.796078 0 0 0 0 0.439216 0 0 0 0 0.00392157 0 0 0 1 0"/>
<feBlend mode="normal" in2="shape" result="effect1_innerShadow"/>
</filter>
<linearGradient id="paint0_linear" x1="30.311" y1="56.6936" x2="30.311" y2="8.96004" gradientUnits="userSpaceOnUse">
<stop stop-color="#F0B100"/>
<stop offset="0.9876" stop-color="#EBA700"/>
</linearGradient>
<linearGradient id="paint1_linear" x1="30.3108" y1="5.82219" x2="30.3108" y2="55.9158" gradientUnits="userSpaceOnUse">
<stop stop-color="#C96D00"/>
<stop offset="0.5383" stop-color="#F3AC00"/>
<stop offset="0.9876" stop-color="#FFFF00"/>
</linearGradient>
<linearGradient id="paint2_linear" x1="30.3109" y1="61.1265" x2="30.3109" y2="0.611013" gradientUnits="userSpaceOnUse">
<stop offset="8e-08" stop-color="#FFC100"/>
<stop offset="0.2951" stop-color="#FFD100"/>
<stop offset="0.6566" stop-color="#FFDF00"/>
<stop offset="0.9876" stop-color="#FFE300"/>
</linearGradient>
<linearGradient id="paint3_linear" x1="30.5584" y1="46.9952" x2="30.5584" y2="14.9931" gradientUnits="userSpaceOnUse">
<stop stop-color="#FFC100"/>
<stop offset="0.9876" stop-color="#FFE300"/>
</linearGradient>
</defs>
</svg>
