<svg width="62" height="67" viewBox="0 0 62 67" fill="none" xmlns="http://www.w3.org/2000/svg">
<path d="M30.5406 67C43.2432 67 53.5406 65.8807 53.5406 64.5C53.5406 63.1193 43.2432 62 30.5406 62C17.8381 62 7.54065 63.1193 7.54065 64.5C7.54065 65.8807 17.8381 67 30.5406 67Z" fill="black" fill-opacity="0.12"/>
<path d="M61.0541 30.4622C61.0541 30.3917 61.0541 30.3272 61.0541 30.2567C61.0541 13.5466 47.5076 0 30.7974 0C14.0872 0 0.540649 13.5466 0.540649 30.2567C0.540649 30.3213 0.540649 30.3859 0.540649 30.4504V33.3851C0.540649 50.0953 14.0872 63.6419 30.7974 63.6419C47.5076 63.6419 61.0541 50.0953 61.0541 33.3851V30.4622Z" fill="#B96400"/>
<path fill-rule="evenodd" clip-rule="evenodd" d="M30.7975 54.1215C27.5752 54.1215 24.4468 53.4935 21.5121 52.2492C18.6713 51.046 16.1181 49.3262 13.9229 47.1311C11.7278 44.9359 10.0081 42.3828 8.80483 39.542C7.56052 36.6014 6.9325 33.4789 6.9325 30.2566C6.9325 27.0343 7.56052 23.9059 8.80483 20.9712C10.0081 18.1304 11.7278 15.5772 13.9229 13.3821C16.1181 11.1869 18.6713 9.46717 21.5121 8.26394C24.4526 7.01963 27.5752 6.3916 30.7975 6.3916C34.0198 6.3916 37.1482 7.01963 40.0829 8.26394C42.9236 9.46717 45.4768 11.1869 47.672 13.3821C49.8671 15.5772 51.5869 18.1304 52.7901 20.9712C54.0344 23.9118 54.6624 27.0343 54.6624 30.2566C54.6624 33.4789 54.0344 36.6073 52.7901 39.542C51.5869 42.3828 49.8671 44.9359 47.672 47.1311C45.4768 49.3262 42.9236 51.046 40.0829 52.2492C37.1482 53.4935 34.0198 54.1215 30.7975 54.1215Z" fill="url(#paint0_linear)"/>
<path d="M30.7973 7.57142C33.8611 7.57142 36.831 8.1701 39.6249 9.34985C42.3248 10.4944 44.7547 12.1261 46.8384 14.2156C48.922 16.2992 50.5596 18.7291 51.7041 21.4291C52.8838 24.2229 53.4825 27.1928 53.4825 30.2566C53.4825 33.3205 52.8838 36.2904 51.7041 39.0842C50.5596 41.7841 48.9279 44.2141 46.8384 46.2977C44.7547 48.3814 42.3248 50.0189 39.6249 51.1634C36.831 52.3432 33.8611 52.9419 30.7973 52.9419C27.7335 52.9419 24.7636 52.3432 21.9697 51.1634C19.2698 50.0189 16.8399 48.3872 14.7562 46.2977C12.6726 44.2141 11.035 41.7841 9.8905 39.0842C8.71075 36.2904 8.11207 33.3205 8.11207 30.2566C8.11207 27.1928 8.71075 24.2229 9.8905 21.4291C11.035 18.7291 12.6667 16.2992 14.7562 14.2156C16.8399 12.1319 19.2698 10.4944 21.9697 9.34985C24.7636 8.1701 27.7335 7.57142 30.7973 7.57142ZM30.7973 5.20605C27.4165 5.20605 24.1355 5.8693 21.0482 7.1723C18.0666 8.43422 15.3843 10.242 13.0835 12.5428C10.7826 14.8436 8.97487 17.5259 7.71295 20.5076C6.40995 23.5949 5.7467 26.87 5.7467 30.2566C5.7467 33.6374 6.40995 36.9184 7.71295 40.0057C8.97487 42.9874 10.7826 45.6697 13.0835 47.9705C15.3843 50.2713 18.0666 52.0791 21.0482 53.341C24.1355 54.644 27.4107 55.3072 30.7973 55.3072C34.1781 55.3072 37.4591 54.644 40.5464 53.341C43.528 52.0791 46.2103 50.2713 48.5111 47.9705C50.8119 45.6697 52.6197 42.9874 53.8816 40.0057C55.1846 36.9184 55.8479 33.6433 55.8479 30.2566C55.8479 26.8759 55.1846 23.5949 53.8816 20.5076C52.6197 17.5259 50.8119 14.8436 48.5111 12.5428C46.2103 10.242 43.528 8.43422 40.5464 7.1723C37.4591 5.8693 34.1781 5.20605 30.7973 5.20605Z" fill="url(#paint1_linear)"/>
<path d="M30.7974 5.20615C34.1782 5.20615 37.4592 5.8694 40.5465 7.1724C43.5281 8.43432 46.2104 10.2421 48.5112 12.5429C50.812 14.8437 52.6198 17.526 53.8817 20.5077C55.1847 23.595 55.848 26.8701 55.848 30.2567C55.848 33.6375 55.1847 36.9185 53.8817 40.0058C52.6198 42.9875 50.812 45.6698 48.5112 47.9706C46.2104 50.2714 43.5281 52.0792 40.5465 53.3411C37.4592 54.6441 34.184 55.3073 30.7974 55.3073C27.4166 55.3073 24.1356 54.6441 21.0483 53.3411C18.0667 52.0792 15.3844 50.2714 13.0836 47.9706C10.7827 45.6698 8.97497 42.9875 7.71305 40.0058C6.41005 36.9185 5.74681 33.6434 5.74681 30.2567C5.74681 26.876 6.41005 23.595 7.71305 20.5077C8.97497 17.526 10.7827 14.8437 13.0836 12.5429C15.3844 10.2421 18.0667 8.43432 21.0483 7.1724C24.1356 5.8694 27.4166 5.20615 30.7974 5.20615ZM30.7974 0C14.0872 0 0.540649 13.5466 0.540649 30.2567C0.540649 46.9669 14.0872 60.5135 30.7974 60.5135C47.5076 60.5135 61.0541 46.9669 61.0541 30.2567C61.0541 13.5466 47.5076 0 30.7974 0Z" fill="url(#paint2_linear)"/>
<g filter="url(#filter0_i)">
<path d="M31.0406 14C40.1538 14 47.5406 21.3868 47.5406 30.5C47.5406 39.6132 40.1538 47 31.0406 47C21.9275 47 14.5406 39.6132 14.5406 30.5C14.5406 21.3868 21.9275 14 31.0406 14ZM30.8643 22.25H24.1076V27.6063H21.7594V29.5255H24.1076V31.5395H21.7594V33.4576H24.1076V38.75H30.8643C34.9274 38.75 38.0191 36.5895 39.2081 33.4587H41.3531V31.5405H39.6784C39.7196 31.2002 39.7403 30.8517 39.7403 30.499V30.4515C39.7403 30.138 39.7238 29.8287 39.6918 29.5255H41.3531V27.6073H39.2484C38.0892 24.4301 34.9738 22.25 30.8643 22.25ZM37.1384 33.4587C36.1 35.5985 33.8683 37.0288 30.8643 37.0288H25.9968V33.4587H37.1384ZM37.7201 29.5255C37.7634 29.8421 37.7861 30.1669 37.7861 30.499V30.5454C37.7861 30.8847 37.7623 31.2157 37.717 31.5395H25.9958V29.5255H37.7211H37.7201ZM30.8653 23.9681C33.8828 23.9681 36.1216 25.4366 37.1539 27.6063H25.9958V23.9681H30.8633H30.8653Z" fill="black"/>
<path d="M31.0406 14C40.1538 14 47.5406 21.3868 47.5406 30.5C47.5406 39.6132 40.1538 47 31.0406 47C21.9275 47 14.5406 39.6132 14.5406 30.5C14.5406 21.3868 21.9275 14 31.0406 14ZM30.8643 22.25H24.1076V27.6063H21.7594V29.5255H24.1076V31.5395H21.7594V33.4576H24.1076V38.75H30.8643C34.9274 38.75 38.0191 36.5895 39.2081 33.4587H41.3531V31.5405H39.6784C39.7196 31.2002 39.7403 30.8517 39.7403 30.499V30.4515C39.7403 30.138 39.7238 29.8287 39.6918 29.5255H41.3531V27.6073H39.2484C38.0892 24.4301 34.9738 22.25 30.8643 22.25ZM37.1384 33.4587C36.1 35.5985 33.8683 37.0288 30.8643 37.0288H25.9968V33.4587H37.1384ZM37.7201 29.5255C37.7634 29.8421 37.7861 30.1669 37.7861 30.499V30.5454C37.7861 30.8847 37.7623 31.2157 37.717 31.5395H25.9958V29.5255H37.7211H37.7201ZM30.8653 23.9681C33.8828 23.9681 36.1216 25.4366 37.1539 27.6063H25.9958V23.9681H30.8633H30.8653Z" fill="url(#paint3_linear)"/>
</g>
<defs>
<filter id="filter0_i" x="14.5406" y="14" width="33" height="34" filterUnits="userSpaceOnUse" color-interpolation-filters="sRGB">
<feFlood flood-opacity="0" result="BackgroundImageFix"/>
<feBlend mode="normal" in="SourceGraphic" in2="BackgroundImageFix" result="shape"/>
<feColorMatrix in="SourceAlpha" type="matrix" values="0 0 0 0 0 0 0 0 0 0 0 0 0 0 0 0 0 0 127 0" result="hardAlpha"/>
<feOffset dy="1"/>
<feGaussianBlur stdDeviation="0.5"/>
<feComposite in2="hardAlpha" operator="arithmetic" k2="-1" k3="1"/>
<feColorMatrix type="matrix" values="0 0 0 0 0.796078 0 0 0 0 0.439216 0 0 0 0 0.00392157 0 0 0 1 0"/>
<feBlend mode="normal" in2="shape" result="effect1_innerShadow"/>
</filter>
<linearGradient id="paint0_linear" x1="30.7975" y1="56.6936" x2="30.7975" y2="8.96004" gradientUnits="userSpaceOnUse">
<stop stop-color="#F0B100"/>
<stop offset="0.9876" stop-color="#EBA700"/>
</linearGradient>
<linearGradient id="paint1_linear" x1="30.7973" y1="5.82219" x2="30.7973" y2="55.9158" gradientUnits="userSpaceOnUse">
<stop stop-color="#C96D00"/>
<stop offset="0.5383" stop-color="#F3AC00"/>
<stop offset="0.9876" stop-color="#FFFF00"/>
</linearGradient>
<linearGradient id="paint2_linear" x1="30.7974" y1="61.1265" x2="30.7974" y2="0.611013" gradientUnits="userSpaceOnUse">
<stop offset="8e-08" stop-color="#FFC100"/>
<stop offset="0.2951" stop-color="#FFD100"/>
<stop offset="0.6566" stop-color="#FFDF00"/>
<stop offset="0.9876" stop-color="#FFE300"/>
</linearGradient>
<linearGradient id="paint3_linear" x1="31.0455" y1="46.9951" x2="31.0455" y2="13.9929" gradientUnits="userSpaceOnUse">
<stop stop-color="#FFC100"/>
<stop offset="0.9876" stop-color="#FFE300"/>
</linearGradient>
</defs>
</svg>
