<svg width="61" height="67" viewBox="0 0 61 67" fill="none" xmlns="http://www.w3.org/2000/svg">
<path d="M30 66.496C42.7025 66.496 53 65.4895 53 64.248C53 63.0065 42.7025 62 30 62C17.2974 62 7 63.0065 7 64.248C7 65.4895 17.2974 66.496 30 66.496Z" fill="black" fill-opacity="0.12"/>
<path d="M60.5135 30.4622C60.5135 30.3917 60.5135 30.3272 60.5135 30.2567C60.5135 13.5466 46.9669 0 30.2567 0C13.5466 0 0 13.5466 0 30.2567C0 30.3213 0 30.3859 0 30.4504V33.3851C0 50.0953 13.5466 63.6419 30.2567 63.6419C46.9669 63.6419 60.5135 50.0953 60.5135 33.3851V30.4622Z" fill="#B96400"/>
<path fill-rule="evenodd" clip-rule="evenodd" d="M30.2567 54.1215C27.0344 54.1215 23.906 53.4935 20.9713 52.2492C18.1305 51.046 15.5773 49.3262 13.3822 47.1311C11.187 44.9359 9.46729 42.3828 8.26406 39.542C7.01975 36.6014 6.39172 33.4789 6.39172 30.2566C6.39172 27.0343 7.01975 23.9059 8.26406 20.9712C9.46729 18.1304 11.187 15.5772 13.3822 13.3821C15.5773 11.1869 18.1305 9.46717 20.9713 8.26394C23.9119 7.01963 27.0344 6.3916 30.2567 6.3916C33.479 6.3916 36.6074 7.01963 39.5421 8.26394C42.3829 9.46717 44.9361 11.1869 47.1312 13.3821C49.3264 15.5772 51.0461 18.1304 52.2493 20.9712C53.4936 23.9118 54.1217 27.0343 54.1217 30.2566C54.1217 33.4789 53.4936 36.6073 52.2493 39.542C51.0461 42.3828 49.3264 44.9359 47.1312 47.1311C44.9361 49.3262 42.3829 51.046 39.5421 52.2492C36.6074 53.4935 33.479 54.1215 30.2567 54.1215Z" fill="url(#paint0_linear)"/>
<path d="M30.2568 7.57142C33.3206 7.57142 36.2905 8.1701 39.0843 9.34985C41.7843 10.4944 44.2142 12.1261 46.2978 14.2156C48.3815 16.2992 50.019 18.7291 51.1636 21.4291C52.3433 24.2229 52.942 27.1928 52.942 30.2566C52.942 33.3205 52.3433 36.2904 51.1636 39.0842C50.019 41.7841 48.3873 44.2141 46.2978 46.2977C44.2142 48.3814 41.7843 50.0189 39.0843 51.1634C36.2905 52.3432 33.3206 52.9419 30.2568 52.9419C27.1929 52.9419 24.223 52.3432 21.4292 51.1634C18.7293 50.0189 16.2993 48.3872 14.2157 46.2977C12.1321 44.2141 10.4945 41.7841 9.34997 39.0842C8.17022 36.2904 7.57154 33.3205 7.57154 30.2566C7.57154 27.1928 8.17022 24.2229 9.34997 21.4291C10.4945 18.7291 12.1262 16.2992 14.2157 14.2156C16.2993 12.1319 18.7293 10.4944 21.4292 9.34985C24.223 8.1701 27.1929 7.57142 30.2568 7.57142ZM30.2568 5.20605C26.876 5.20605 23.595 5.8693 20.5077 7.1723C17.526 8.43422 14.8437 10.242 12.5429 12.5428C10.2421 14.8436 8.43435 17.5259 7.17243 20.5076C5.86942 23.5949 5.20618 26.87 5.20618 30.2566C5.20618 33.6374 5.86942 36.9184 7.17243 40.0057C8.43435 42.9874 10.2421 45.6697 12.5429 47.9705C14.8437 50.2713 17.526 52.0791 20.5077 53.341C23.595 54.644 26.8701 55.3072 30.2568 55.3072C33.6375 55.3072 36.9185 54.644 40.0058 53.341C42.9875 52.0791 45.6698 50.2713 47.9706 47.9705C50.2714 45.6697 52.0792 42.9874 53.3411 40.0057C54.6441 36.9184 55.3074 33.6433 55.3074 30.2566C55.3074 26.8759 54.6441 23.5949 53.3411 20.5076C52.0792 17.5259 50.2714 14.8436 47.9706 12.5428C45.6698 10.242 42.9875 8.43422 40.0058 7.1723C36.9185 5.8693 33.6375 5.20605 30.2568 5.20605Z" fill="url(#paint1_linear)"/>
<path d="M30.2567 5.20615C33.6375 5.20615 36.9185 5.8694 40.0058 7.1724C42.9875 8.43432 45.6698 10.2421 47.9706 12.5429C50.2714 14.8437 52.0792 17.526 53.3411 20.5077C54.6441 23.595 55.3073 26.8701 55.3073 30.2567C55.3073 33.6375 54.6441 36.9185 53.3411 40.0058C52.0792 42.9875 50.2714 45.6698 47.9706 47.9706C45.6698 50.2714 42.9875 52.0792 40.0058 53.3411C36.9185 54.6441 33.6434 55.3073 30.2567 55.3073C26.876 55.3073 23.595 54.6441 20.5077 53.3411C17.526 52.0792 14.8437 50.2714 12.5429 47.9706C10.2421 45.6698 8.43433 42.9875 7.1724 40.0058C5.8694 36.9185 5.20616 33.6434 5.20616 30.2567C5.20616 26.876 5.8694 23.595 7.1724 20.5077C8.43433 17.526 10.2421 14.8437 12.5429 12.5429C14.8437 10.2421 17.526 8.43432 20.5077 7.1724C23.595 5.8694 26.876 5.20615 30.2567 5.20615ZM30.2567 0C13.5466 0 0 13.5466 0 30.2567C0 46.9669 13.5466 60.5135 30.2567 60.5135C46.9669 60.5135 60.5135 46.9669 60.5135 30.2567C60.5135 13.5466 46.9669 0 30.2567 0Z" fill="url(#paint2_linear)"/>
<g filter="url(#filter0_i)">
<path d="M36.3633 30.7564C37.9799 30.5295 39.2849 29.5722 39.846 27.3963C40.6176 24.4233 38.5706 22.5951 35.6462 21.2295L36.9008 17.7525C36.9056 17.7417 36.9146 17.7341 36.9187 17.7225C37.0146 17.4573 36.8848 17.1679 36.6292 17.0751L35.2177 16.5651C35.095 16.5209 34.9592 16.529 34.84 16.5877C34.7208 16.6463 34.628 16.7507 34.5821 16.8778L34.5713 16.874L33.3429 20.2797C32.7269 20.0572 32.0931 19.8425 31.4634 19.6302L32.6868 16.2408C32.6931 16.2266 32.7048 16.2165 32.7102 16.2015C32.806 15.9363 32.6762 15.6469 32.4206 15.5541L31.0091 15.0441C30.8865 14.9999 30.7506 15.008 30.6314 15.0666C30.5122 15.1253 30.4194 15.2296 30.3735 15.3568L30.3734 15.3581L30.362 15.3539L29.0948 18.8633C28.5838 18.6908 28.0819 18.5221 27.5963 18.3466L27.6005 18.3338L24.3705 17.1668L24.3687 17.1718C24.3079 17.1497 24.2431 17.1404 24.1782 17.1442C24.1133 17.148 24.0495 17.1649 23.9903 17.1939C23.9312 17.223 23.878 17.2636 23.8337 17.3135C23.7894 17.3634 23.7549 17.4215 23.7321 17.4846L23.1461 19.1065C23.0503 19.3717 23.1799 19.6616 23.4357 19.754L23.4377 19.7543L23.435 19.7616C23.435 19.7616 25.177 20.3515 25.1367 20.3729C26.0849 20.7159 26.1878 21.3983 26.0998 21.9232L24.4593 26.4693L24.4535 26.4867L22.1552 32.8535C22.002 33.1479 21.648 33.5784 20.985 33.3402C21.0052 33.3783 19.2828 32.7247 19.2828 32.7247L19.2816 32.7269C19.2786 32.7258 19.2771 32.7231 19.2741 32.722C19.0517 32.6416 18.8148 32.7435 18.6917 32.9442L18.6732 32.9362L17.53 34.766L17.5393 34.7715C17.5311 34.7885 17.5174 34.8009 17.5107 34.8194C17.4187 35.0742 17.5382 35.3478 17.7746 35.451L17.7709 35.4579L20.8188 36.5579C21.3859 36.7628 21.9407 36.974 22.4873 37.1754L21.2055 40.7311L21.2066 40.7315C21.1109 40.9964 21.2405 41.2862 21.4963 41.3786L22.9077 41.8886C23.0305 41.9327 23.1664 41.9245 23.2856 41.8658C23.4048 41.8071 23.4976 41.7027 23.5435 41.5755L23.5443 41.5757L24.8115 38.0638C25.4489 38.3093 26.0686 38.5388 26.6762 38.7566L25.4142 42.2518L25.4153 42.2522C25.32 42.5171 25.4493 42.8068 25.7047 42.8991L27.1161 43.4091C27.2388 43.4532 27.3747 43.445 27.494 43.3863C27.6132 43.3276 27.7059 43.2232 27.7519 43.096L27.752 43.0956L27.755 43.0967L29.0365 39.5474C33.0585 40.7337 36.1859 40.6999 37.9116 36.9892C39.3013 34.0023 38.3978 32.119 36.3633 30.7564ZM30.4876 22.5046C31.8097 22.9814 36.1203 24.0442 35.0881 26.9056C34.0973 29.6491 30.0595 27.8301 28.7374 27.3533L30.4876 22.5046ZM25.9245 35.1466L27.855 29.8002C29.4422 30.3737 34.5907 31.6967 33.4557 34.8416C32.3685 37.8575 27.5128 35.7174 25.9245 35.1466Z" fill="black"/>
<path d="M36.3633 30.7564C37.9799 30.5295 39.2849 29.5722 39.846 27.3963C40.6176 24.4233 38.5706 22.5951 35.6462 21.2295L36.9008 17.7525C36.9056 17.7417 36.9146 17.7341 36.9187 17.7225C37.0146 17.4573 36.8848 17.1679 36.6292 17.0751L35.2177 16.5651C35.095 16.5209 34.9592 16.529 34.84 16.5877C34.7208 16.6463 34.628 16.7507 34.5821 16.8778L34.5713 16.874L33.3429 20.2797C32.7269 20.0572 32.0931 19.8425 31.4634 19.6302L32.6868 16.2408C32.6931 16.2266 32.7048 16.2165 32.7102 16.2015C32.806 15.9363 32.6762 15.6469 32.4206 15.5541L31.0091 15.0441C30.8865 14.9999 30.7506 15.008 30.6314 15.0666C30.5122 15.1253 30.4194 15.2296 30.3735 15.3568L30.3734 15.3581L30.362 15.3539L29.0948 18.8633C28.5838 18.6908 28.0819 18.5221 27.5963 18.3466L27.6005 18.3338L24.3705 17.1668L24.3687 17.1718C24.3079 17.1497 24.2431 17.1404 24.1782 17.1442C24.1133 17.148 24.0495 17.1649 23.9903 17.1939C23.9312 17.223 23.878 17.2636 23.8337 17.3135C23.7894 17.3634 23.7549 17.4215 23.7321 17.4846L23.1461 19.1065C23.0503 19.3717 23.1799 19.6616 23.4357 19.754L23.4377 19.7543L23.435 19.7616C23.435 19.7616 25.177 20.3515 25.1367 20.3729C26.0849 20.7159 26.1878 21.3983 26.0998 21.9232L24.4593 26.4693L24.4535 26.4867L22.1552 32.8535C22.002 33.1479 21.648 33.5784 20.985 33.3402C21.0052 33.3783 19.2828 32.7247 19.2828 32.7247L19.2816 32.7269C19.2786 32.7258 19.2771 32.7231 19.2741 32.722C19.0517 32.6416 18.8148 32.7435 18.6917 32.9442L18.6732 32.9362L17.53 34.766L17.5393 34.7715C17.5311 34.7885 17.5174 34.8009 17.5107 34.8194C17.4187 35.0742 17.5382 35.3478 17.7746 35.451L17.7709 35.4579L20.8188 36.5579C21.3859 36.7628 21.9407 36.974 22.4873 37.1754L21.2055 40.7311L21.2066 40.7315C21.1109 40.9964 21.2405 41.2862 21.4963 41.3786L22.9077 41.8886C23.0305 41.9327 23.1664 41.9245 23.2856 41.8658C23.4048 41.8071 23.4976 41.7027 23.5435 41.5755L23.5443 41.5757L24.8115 38.0638C25.4489 38.3093 26.0686 38.5388 26.6762 38.7566L25.4142 42.2518L25.4153 42.2522C25.32 42.5171 25.4493 42.8068 25.7047 42.8991L27.1161 43.4091C27.2388 43.4532 27.3747 43.445 27.494 43.3863C27.6132 43.3276 27.7059 43.2232 27.7519 43.096L27.752 43.0956L27.755 43.0967L29.0365 39.5474C33.0585 40.7337 36.1859 40.6999 37.9116 36.9892C39.3013 34.0023 38.3978 32.119 36.3633 30.7564ZM30.4876 22.5046C31.8097 22.9814 36.1203 24.0442 35.0881 26.9056C34.0973 29.6491 30.0595 27.8301 28.7374 27.3533L30.4876 22.5046ZM25.9245 35.1466L27.855 29.8002C29.4422 30.3737 34.5907 31.6967 33.4557 34.8416C32.3685 37.8575 27.5128 35.7174 25.9245 35.1466Z" fill="url(#paint3_linear)"/>
</g>
<defs>
<filter id="filter0_i" x="17.4796" y="15.016" width="22.5301" height="29.4212" filterUnits="userSpaceOnUse" color-interpolation-filters="sRGB">
<feFlood flood-opacity="0" result="BackgroundImageFix"/>
<feBlend mode="normal" in="SourceGraphic" in2="BackgroundImageFix" result="shape"/>
<feColorMatrix in="SourceAlpha" type="matrix" values="0 0 0 0 0 0 0 0 0 0 0 0 0 0 0 0 0 0 127 0" result="hardAlpha"/>
<feOffset dy="1"/>
<feGaussianBlur stdDeviation="0.5"/>
<feComposite in2="hardAlpha" operator="arithmetic" k2="-1" k3="1"/>
<feColorMatrix type="matrix" values="0 0 0 0 0.796078 0 0 0 0 0.439216 0 0 0 0 0.00392157 0 0 0 1 0"/>
<feBlend mode="normal" in2="shape" result="effect1_innerShadow"/>
</filter>
<linearGradient id="paint0_linear" x1="30.2567" y1="56.6936" x2="30.2567" y2="8.96004" gradientUnits="userSpaceOnUse">
<stop stop-color="#F0B100"/>
<stop offset="0.9876" stop-color="#EBA700"/>
</linearGradient>
<linearGradient id="paint1_linear" x1="30.2568" y1="5.82219" x2="30.2568" y2="55.9158" gradientUnits="userSpaceOnUse">
<stop stop-color="#C96D00"/>
<stop offset="0.5383" stop-color="#F3AC00"/>
<stop offset="0.9876" stop-color="#FFFF00"/>
</linearGradient>
<linearGradient id="paint2_linear" x1="30.2567" y1="61.1265" x2="30.2567" y2="0.611013" gradientUnits="userSpaceOnUse">
<stop offset="8e-08" stop-color="#FFC100"/>
<stop offset="0.2951" stop-color="#FFD100"/>
<stop offset="0.6566" stop-color="#FFDF00"/>
<stop offset="0.9876" stop-color="#FFE300"/>
</linearGradient>
<linearGradient id="paint3_linear" x1="25.2468" y1="42.7292" x2="34.7621" y2="16.3937" gradientUnits="userSpaceOnUse">
<stop stop-color="#FFC100"/>
<stop offset="0.9876" stop-color="#FFE300"/>
</linearGradient>
</defs>
</svg>
