<svg width="61" height="67" viewBox="0 0 61 67" fill="none" xmlns="http://www.w3.org/2000/svg">
<path d="M30.0271 67C42.7296 67 53.0271 65.8807 53.0271 64.5C53.0271 63.1193 42.7296 62 30.0271 62C17.3245 62 7.0271 63.1193 7.0271 64.5C7.0271 65.8807 17.3245 67 30.0271 67Z" fill="black" fill-opacity="0.12"/>
<path d="M60.5406 30.4622C60.5406 30.3917 60.5406 30.3272 60.5406 30.2567C60.5406 13.5466 46.994 0 30.2838 0C13.5737 0 0.0270996 13.5466 0.0270996 30.2567C0.0270996 30.3213 0.0270996 30.3859 0.0270996 30.4504V33.3851C0.0270996 50.0953 13.5737 63.6419 30.2838 63.6419C46.994 63.6419 60.5406 50.0953 60.5406 33.3851V30.4622Z" fill="#B96400"/>
<path fill-rule="evenodd" clip-rule="evenodd" d="M30.2839 54.1215C27.0616 54.1215 23.9332 53.4935 20.9985 52.2492C18.1577 51.046 15.6046 49.3262 13.4094 47.1311C11.2142 44.9359 9.49451 42.3828 8.29128 39.542C7.04697 36.6014 6.41895 33.4789 6.41895 30.2566C6.41895 27.0343 7.04697 23.9059 8.29128 20.9712C9.49451 18.1304 11.2142 15.5772 13.4094 13.3821C15.6046 11.1869 18.1577 9.46717 20.9985 8.26394C23.9391 7.01963 27.0616 6.3916 30.2839 6.3916C33.5062 6.3916 36.6346 7.01963 39.5693 8.26394C42.4101 9.46717 44.9633 11.1869 47.1584 13.3821C49.3536 15.5772 51.0733 18.1304 52.2766 20.9712C53.5209 23.9118 54.1489 27.0343 54.1489 30.2566C54.1489 33.4789 53.5209 36.6073 52.2766 39.542C51.0733 42.3828 49.3536 44.9359 47.1584 47.1311C44.9633 49.3262 42.4101 51.046 39.5693 52.2492C36.6346 53.4935 33.5062 54.1215 30.2839 54.1215Z" fill="url(#paint0_linear)"/>
<path d="M30.2837 7.57142C33.3476 7.57142 36.3175 8.1701 39.1113 9.34985C41.8112 10.4944 44.2412 12.1261 46.3248 14.2156C48.4085 16.2992 50.046 18.7291 51.1905 21.4291C52.3703 24.2229 52.969 27.1928 52.969 30.2566C52.969 33.3205 52.3703 36.2904 51.1905 39.0842C50.046 41.7841 48.4143 44.2141 46.3248 46.2977C44.2412 48.3814 41.8112 50.0189 39.1113 51.1634C36.3175 52.3432 33.3476 52.9419 30.2837 52.9419C27.2199 52.9419 24.25 52.3432 21.4562 51.1634C18.7562 50.0189 16.3263 48.3872 14.2427 46.2977C12.159 44.2141 10.5215 41.7841 9.37695 39.0842C8.1972 36.2904 7.59852 33.3205 7.59852 30.2566C7.59852 27.1928 8.1972 24.2229 9.37695 21.4291C10.5215 18.7291 12.1532 16.2992 14.2427 14.2156C16.3263 12.1319 18.7562 10.4944 21.4562 9.34985C24.25 8.1701 27.2199 7.57142 30.2837 7.57142ZM30.2837 5.20605C26.903 5.20605 23.622 5.8693 20.5347 7.1723C17.553 8.43422 14.8707 10.242 12.5699 12.5428C10.2691 14.8436 8.46132 17.5259 7.1994 20.5076C5.8964 23.5949 5.23315 26.87 5.23315 30.2566C5.23315 33.6374 5.8964 36.9184 7.1994 40.0057C8.46132 42.9874 10.2691 45.6697 12.5699 47.9705C14.8707 50.2713 17.553 52.0791 20.5347 53.341C23.622 54.644 26.8971 55.3072 30.2837 55.3072C33.6645 55.3072 36.9455 54.644 40.0328 53.341C43.0145 52.0791 45.6968 50.2713 47.9976 47.9705C50.2984 45.6697 52.1062 42.9874 53.3681 40.0057C54.6711 36.9184 55.3343 33.6433 55.3343 30.2566C55.3343 26.8759 54.6711 23.5949 53.3681 20.5076C52.1062 17.5259 50.2984 14.8436 47.9976 12.5428C45.6968 10.242 43.0145 8.43422 40.0328 7.1723C36.9455 5.8693 33.6645 5.20605 30.2837 5.20605Z" fill="url(#paint1_linear)"/>
<path d="M30.2838 5.20615C33.6646 5.20615 36.9456 5.8694 40.0329 7.1724C43.0146 8.43432 45.6969 10.2421 47.9977 12.5429C50.2985 14.8437 52.1063 17.526 53.3682 20.5077C54.6712 23.595 55.3344 26.8701 55.3344 30.2567C55.3344 33.6375 54.6712 36.9185 53.3682 40.0058C52.1063 42.9875 50.2985 45.6698 47.9977 47.9706C45.6969 50.2714 43.0146 52.0792 40.0329 53.3411C36.9456 54.6441 33.6705 55.3073 30.2838 55.3073C26.9031 55.3073 23.6221 54.6441 20.5348 53.3411C17.5531 52.0792 14.8708 50.2714 12.57 47.9706C10.2692 45.6698 8.46142 42.9875 7.1995 40.0058C5.8965 36.9185 5.23326 33.6434 5.23326 30.2567C5.23326 26.876 5.8965 23.595 7.1995 20.5077C8.46142 17.526 10.2692 14.8437 12.57 12.5429C14.8708 10.2421 17.5531 8.43432 20.5348 7.1724C23.6221 5.8694 26.9031 5.20615 30.2838 5.20615ZM30.2838 0C13.5737 0 0.0270996 13.5466 0.0270996 30.2567C0.0270996 46.9669 13.5737 60.5135 30.2838 60.5135C46.994 60.5135 60.5406 46.9669 60.5406 30.2567C60.5406 13.5466 46.994 0 30.2838 0Z" fill="url(#paint2_linear)"/>
<g filter="url(#filter0_i)">
<path d="M30.5271 46.5C21.4139 46.5 14.0271 39.1132 14.0271 30C14.0271 20.8868 21.4139 13.5 30.5271 13.5C39.6403 13.5 47.0271 20.8868 47.0271 30C47.0271 39.1132 39.6403 46.5 30.5271 46.5ZM30.2693 41.8594C33.483 41.8594 36.565 40.5827 38.8374 38.3103C41.1098 36.0379 42.3865 32.9559 42.3865 29.7422C42.3865 23.0494 36.9621 17.625 30.2693 17.625C23.5765 17.625 18.1521 23.0494 18.1521 29.7422C18.1521 36.435 23.5765 41.8594 30.2693 41.8594ZM29.5474 25.2459V24.4828C29.5474 24.29 29.624 24.1051 29.7604 23.9687C29.8967 23.8324 30.0816 23.7558 30.2744 23.7558C30.4673 23.7558 30.6522 23.8324 30.7885 23.9687C30.9249 24.1051 31.0015 24.29 31.0015 24.4828V25.1944C31.5757 25.2358 32.1221 25.4575 32.5629 25.8279C33.0036 26.1983 33.3161 26.6984 33.4559 27.2569C33.4807 27.3676 33.4611 27.4836 33.4014 27.58C33.3416 27.6764 33.2464 27.7455 33.1362 27.7725H32.6515C32.4955 27.7717 32.343 27.7267 32.2116 27.6427C32.0802 27.5588 31.9753 27.4393 31.909 27.2981C31.7455 27.0155 31.5036 26.7862 31.2127 26.6379C30.9217 26.4897 30.5941 26.4289 30.2693 26.4628C29.238 26.4628 28.6193 27.1022 28.6193 27.6797C28.6193 28.2572 29.104 28.5975 30.1352 28.8553L31.1665 29.0822C32.9505 29.4637 33.7034 30.2166 33.7034 31.5262C33.6926 32.2303 33.4075 32.9024 32.9086 33.3994C32.4097 33.8963 31.7365 34.1789 31.0324 34.1869V35.0634C31.0324 35.2563 30.9558 35.4412 30.8195 35.5775C30.6831 35.7139 30.4982 35.7905 30.3054 35.7905C30.1126 35.7905 29.9276 35.7139 29.7913 35.5775C29.6549 35.4412 29.5783 35.2563 29.5783 35.0634V34.1972C28.9556 34.1877 28.3537 33.972 27.8666 33.5839C27.3796 33.1957 27.035 32.6571 26.8868 32.0522C26.8778 32.0055 26.8782 31.9574 26.8879 31.9108C26.8976 31.8642 26.9164 31.82 26.9432 31.7807C26.9701 31.7414 27.0044 31.7078 27.0443 31.6818C27.0841 31.6559 27.1287 31.638 27.1755 31.6294H27.784C27.9161 31.6304 28.0452 31.6686 28.1565 31.7398C28.2678 31.8109 28.3567 31.9121 28.413 32.0316C28.6032 32.3465 28.8781 32.6015 29.2064 32.7674C29.5346 32.9334 29.903 33.0036 30.2693 32.97C31.3005 32.97 32.0946 32.3512 32.0946 31.7222C32.0946 31.0931 31.6409 30.7219 30.5374 30.4641L29.403 30.1959C27.784 29.8556 27.0209 29.0409 27.0209 27.7931C27.0483 27.1299 27.3228 26.5009 27.7902 26.0296C28.2577 25.5583 28.8844 25.2788 29.5474 25.2459ZM21.184 29.7422C21.1852 27.837 21.7866 25.9806 22.9029 24.4367C24.0192 22.8927 25.5936 21.7398 27.4024 21.1416C27.4681 21.1183 27.5384 21.1113 27.6073 21.121C27.6763 21.1308 27.7419 21.157 27.7986 21.1975C27.8552 21.2379 27.9013 21.2915 27.9329 21.3536C27.9644 21.4156 27.9806 21.4844 27.9799 21.5541V21.7913C27.9796 21.9818 27.9225 22.1679 27.816 22.3258C27.7095 22.4838 27.5583 22.6064 27.3818 22.6781C25.9789 23.2444 24.7772 24.217 23.931 25.4711C23.0848 26.7252 22.6327 28.2035 22.6327 29.7164C22.6327 31.2293 23.0848 32.7076 23.931 33.9617C24.7772 35.2158 25.9789 36.1884 27.3818 36.7547C27.5591 36.8282 27.7106 36.9527 27.8171 37.1124C27.9236 37.2722 27.9803 37.4599 27.9799 37.6519V37.8684C27.9799 37.9915 27.931 38.1096 27.844 38.1966C27.757 38.2836 27.6389 38.3325 27.5158 38.3325H27.3715C25.5701 37.7295 24.0036 36.5759 22.8934 35.0345C21.7831 33.4931 21.1852 31.6418 21.184 29.7422ZM39.3546 29.7422C39.3563 31.6423 38.7609 33.4949 37.6524 35.0383C36.544 36.5816 34.9786 37.7375 33.1774 38.3428C33.105 38.3672 33.0278 38.3741 32.9521 38.363C32.8765 38.3519 32.8045 38.323 32.7422 38.2787C32.6798 38.2345 32.6288 38.1761 32.5934 38.1084C32.5579 38.0407 32.5389 37.9655 32.538 37.8891V37.7137C32.5433 37.5178 32.6042 37.3273 32.7138 37.1648C32.8234 37.0022 32.9771 36.8743 33.1568 36.7959C34.5565 36.228 35.7549 35.2554 36.5987 34.0024C37.4424 32.7495 37.8931 31.2733 37.8931 29.7628C37.8931 28.2523 37.4424 26.7761 36.5987 25.5232C35.7549 24.2703 34.5565 23.2976 33.1568 22.7297C32.9736 22.6521 32.8167 22.5233 32.7051 22.3586C32.5935 22.1939 32.5319 22.0005 32.5277 21.8016V21.6469C32.5277 21.3788 32.7443 21.1622 33.0124 21.1622H33.1671C34.9668 21.7646 36.5321 22.9167 37.6422 24.456C38.7523 25.9954 39.3513 27.8443 39.3546 29.7422Z" fill="url(#paint3_linear)"/>
</g>
<defs>
<filter id="filter0_i" x="14.0271" y="13.5" width="33" height="34.0312" filterUnits="userSpaceOnUse" color-interpolation-filters="sRGB">
<feFlood flood-opacity="0" result="BackgroundImageFix"/>
<feBlend mode="normal" in="SourceGraphic" in2="BackgroundImageFix" result="shape"/>
<feColorMatrix in="SourceAlpha" type="matrix" values="0 0 0 0 0 0 0 0 0 0 0 0 0 0 0 0 0 0 127 0" result="hardAlpha"/>
<feOffset dy="1.03125"/>
<feGaussianBlur stdDeviation="0.515625"/>
<feComposite in2="hardAlpha" operator="arithmetic" k2="-1" k3="1"/>
<feColorMatrix type="matrix" values="0 0 0 0 0.796078 0 0 0 0 0.439216 0 0 0 0 0.00392157 0 0 0 1 0"/>
<feBlend mode="normal" in2="shape" result="effect1_innerShadow"/>
</filter>
<linearGradient id="paint0_linear" x1="30.2839" y1="56.6936" x2="30.2839" y2="8.96004" gradientUnits="userSpaceOnUse">
<stop stop-color="#F0B100"/>
<stop offset="0.9876" stop-color="#EBA700"/>
</linearGradient>
<linearGradient id="paint1_linear" x1="30.2837" y1="5.82219" x2="30.2837" y2="55.9158" gradientUnits="userSpaceOnUse">
<stop stop-color="#C96D00"/>
<stop offset="0.5383" stop-color="#F3AC00"/>
<stop offset="0.9876" stop-color="#FFFF00"/>
</linearGradient>
<linearGradient id="paint2_linear" x1="30.2838" y1="61.1265" x2="30.2838" y2="0.611013" gradientUnits="userSpaceOnUse">
<stop offset="8e-08" stop-color="#FFC100"/>
<stop offset="0.2951" stop-color="#FFD100"/>
<stop offset="0.6566" stop-color="#FFDF00"/>
<stop offset="0.9876" stop-color="#FFE300"/>
</linearGradient>
<linearGradient id="paint3_linear" x1="30.5319" y1="46.4951" x2="30.5319" y2="13.4929" gradientUnits="userSpaceOnUse">
<stop stop-color="#FFC100"/>
<stop offset="0.9876" stop-color="#FFE300"/>
</linearGradient>
</defs>
</svg>
