<svg width="143" height="30" viewBox="0 0 143 30" fill="none" xmlns="http://www.w3.org/2000/svg">
<path d="M11.438 6.19C6.264 6.19 2.91 10.116 2.91 15.368C2.91 20.36 5.952 24.286 11.152 24.286C16.274 24.286 19.758 20.802 19.758 15.056C19.758 10.22 16.82 6.19 11.438 6.19ZM11.334 9.336C14.064 9.336 15.572 12.04 15.572 15.186C15.572 18.592 14.038 21.14 11.36 21.14C8.708 21.14 7.096 18.722 7.096 15.29C7.096 11.884 8.656 9.336 11.334 9.336ZM24.3527 24H28.2787V17.734C28.6427 17.786 29.1107 17.812 29.6307 17.812C31.9707 17.812 33.9727 17.24 35.3247 15.966C36.3647 14.978 36.9367 13.522 36.9367 11.806C36.9367 10.09 36.1827 8.634 35.0647 7.75C33.8947 6.814 32.1527 6.346 29.7087 6.346C27.2907 6.346 25.5747 6.502 24.3527 6.71V24ZM28.2787 9.492C28.5647 9.414 29.1107 9.336 29.9167 9.336C31.8927 9.336 33.0107 10.298 33.0107 11.91C33.0107 13.704 31.7107 14.77 29.6047 14.77C29.0327 14.77 28.6167 14.744 28.2787 14.666V9.492ZM51.8861 13.366H45.4381V9.726H52.2761V6.476H41.4601V24H52.6401V20.75H45.4381V16.59H51.8861V13.366ZM60.9888 24V18.722C60.9888 15.862 60.9368 13.392 60.8328 11.078L60.9108 11.052C61.7688 13.106 62.9128 15.368 63.9528 17.24L67.6968 24H71.8568V6.476H68.2168V11.572C68.2168 14.224 68.2948 16.59 68.5548 18.904H68.4768C67.6968 16.928 66.6568 14.744 65.6168 12.898L61.9768 6.476H57.3488V24H60.9888ZM84.5558 23.922C85.4398 24.052 86.8958 24.182 88.8458 24.182C92.3298 24.182 94.4618 23.61 95.7358 22.596C96.8278 21.712 97.5558 20.464 97.5558 18.878C97.5558 16.616 96.0738 15.108 94.0718 14.562V14.51C96.0478 13.782 96.9578 12.326 96.9578 10.766C96.9578 9.18 96.0738 7.984 94.8518 7.334C93.5778 6.58 92.0958 6.346 89.6778 6.346C87.7018 6.346 85.5958 6.502 84.5558 6.71V23.922ZM88.4818 9.336C88.8198 9.284 89.3138 9.232 90.1718 9.232C91.9658 9.232 92.9798 9.934 92.9798 11.26C92.9798 12.56 91.8618 13.418 89.7818 13.418H88.4818V9.336ZM88.4818 16.252H89.8338C91.8098 16.252 93.3958 16.954 93.3958 18.722C93.3958 20.542 91.8098 21.244 90.0158 21.244C89.3398 21.244 88.8718 21.244 88.4818 21.192V16.252ZM138.653 13.964H132.127V17.058H134.831V20.724C134.519 20.88 133.791 20.984 132.881 20.984C129.631 20.984 127.369 18.852 127.369 15.238C127.369 11.442 129.865 9.57 133.167 9.57C135.091 9.57 136.287 9.908 137.249 10.324L138.081 7.152C137.223 6.736 135.481 6.294 133.219 6.294C127.473 6.294 123.235 9.622 123.209 15.446C123.183 18.02 124.067 20.308 125.679 21.816C127.291 23.376 129.605 24.182 132.803 24.182C135.117 24.182 137.431 23.61 138.653 23.194V13.964Z" fill="white"/>
<path fill-rule="evenodd" clip-rule="evenodd" d="M107.026 6.69355C109.073 4.26361 112.917 4.26361 114.69 6.69354C117.049 9.92587 117.675 14.861 118.584 22.0308C118.714 23.0579 118.851 24.1308 118.998 25.2511C119.014 25.366 118.922 25.4686 118.806 25.4642L102.18 24.8326C102.072 24.8285 101.989 24.7385 102.001 24.6307C102.425 20.9342 104.089 10.1817 107.026 6.69355ZM107.77 7.25343C109.711 5.13562 112.139 5.45432 113.752 7.06653C114.857 8.17192 116.323 11.631 116.904 16.3903C116.918 16.5012 116.831 16.5995 116.72 16.5995L104.616 16.5995C104.504 16.5995 104.417 16.5005 104.431 16.3894C105.003 11.8696 106.355 8.79772 107.77 7.25343ZM110.391 19.2172C110.907 19.2172 111.326 18.7987 111.326 18.2826C111.326 17.7664 110.907 17.348 110.391 17.348C109.875 17.348 109.456 17.7664 109.456 18.2826C109.456 18.7987 109.875 19.2172 110.391 19.2172Z" fill="url(#paint0_linear)"/>
<path fill-rule="evenodd" clip-rule="evenodd" d="M107.026 6.69355C109.073 4.26361 112.917 4.26361 114.69 6.69354C117.049 9.92587 117.675 14.861 118.584 22.0308C118.714 23.0579 118.851 24.1308 118.998 25.2511C119.014 25.366 118.922 25.4686 118.806 25.4642L102.18 24.8326C102.072 24.8285 101.989 24.7385 102.001 24.6307C102.425 20.9342 104.089 10.1817 107.026 6.69355ZM107.77 7.25343C109.711 5.13562 112.139 5.45432 113.752 7.06653C114.857 8.17192 116.323 11.631 116.904 16.3903C116.918 16.5012 116.831 16.5995 116.72 16.5995L104.616 16.5995C104.504 16.5995 104.417 16.5005 104.431 16.3894C105.003 11.8696 106.355 8.79772 107.77 7.25343ZM110.391 19.2172C110.907 19.2172 111.326 18.7987 111.326 18.2826C111.326 17.7664 110.907 17.348 110.391 17.348C109.875 17.348 109.456 17.7664 109.456 18.2826C109.456 18.7987 109.875 19.2172 110.391 19.2172Z" fill="white"/>
<defs>
<linearGradient id="paint0_linear" x1="110.5" y1="4.87109" x2="110.5" y2="25.4644" gradientUnits="userSpaceOnUse">
<stop stop-color="#FBEF51"/>
<stop offset="1" stop-color="#D6723E"/>
</linearGradient>
</defs>
</svg>
