<svg width="40" height="41" viewBox="0 0 40 41" fill="none" xmlns="http://www.w3.org/2000/svg">
<rect x="2.72549" y="0.72549" width="34.549" height="34.549" rx="17.2745" fill="#B55096" stroke="#961F71" stroke-width="1.45098"/>
<g filter="url(#filter0_d)">
<rect x="3.3999" y="1.3999" width="33" height="33" rx="16.5" fill="#B55096"/>
<rect x="4.12539" y="2.12539" width="31.549" height="31.549" rx="15.7745" stroke="url(#paint0_linear)" stroke-width="1.45098"/>
</g>
<g filter="url(#filter1_d)">
<rect x="4.80396" y="2.90198" width="30" height="30" rx="15" fill="#B55096"/>
<rect x="5.52945" y="3.62747" width="28.549" height="28.549" rx="14.2745" stroke="url(#paint1_linear)" stroke-width="1.45098"/>
</g>
<g filter="url(#filter2_d)">
<g filter="url(#filter3_i)">
<path fill-rule="evenodd" clip-rule="evenodd" d="M19.8001 8.85632C18.3977 8.85632 17.2609 9.99317 17.2609 11.3955V15.3857H13.2707C11.8683 15.3857 10.7314 16.5226 10.7314 17.9249C10.7314 19.3273 11.8683 20.4642 13.2707 20.4642H17.2609V24.4544C17.2609 25.8567 18.3977 26.9936 19.8001 26.9936C21.2024 26.9936 22.3393 25.8567 22.3393 24.4544V20.4642H26.3295C27.7319 20.4642 28.8687 19.3273 28.8687 17.9249C28.8687 16.5226 27.7319 15.3857 26.3295 15.3857H22.3393V11.3955C22.3393 9.99317 21.2024 8.85632 19.8001 8.85632Z" fill="white"/>
</g>
</g>
<defs>
<filter id="filter0_d" x="0.497942" y="1.3999" width="38.8039" height="38.8039" filterUnits="userSpaceOnUse" color-interpolation-filters="sRGB">
<feFlood flood-opacity="0" result="BackgroundImageFix"/>
<feColorMatrix in="SourceAlpha" type="matrix" values="0 0 0 0 0 0 0 0 0 0 0 0 0 0 0 0 0 0 127 0"/>
<feOffset dy="2.90196"/>
<feGaussianBlur stdDeviation="1.45098"/>
<feColorMatrix type="matrix" values="0 0 0 0 0 0 0 0 0 0 0 0 0 0 0 0 0 0 0.25 0"/>
<feBlend mode="normal" in2="BackgroundImageFix" result="effect1_dropShadow"/>
<feBlend mode="normal" in="SourceGraphic" in2="effect1_dropShadow" result="shape"/>
</filter>
<filter id="filter1_d" x="1.90199" y="2.90198" width="35.8039" height="35.8039" filterUnits="userSpaceOnUse" color-interpolation-filters="sRGB">
<feFlood flood-opacity="0" result="BackgroundImageFix"/>
<feColorMatrix in="SourceAlpha" type="matrix" values="0 0 0 0 0 0 0 0 0 0 0 0 0 0 0 0 0 0 127 0"/>
<feOffset dy="2.90196"/>
<feGaussianBlur stdDeviation="1.45098"/>
<feColorMatrix type="matrix" values="0 0 0 0 0 0 0 0 0 0 0 0 0 0 0 0 0 0 0.25 0"/>
<feBlend mode="normal" in2="BackgroundImageFix" result="effect1_dropShadow"/>
<feBlend mode="normal" in="SourceGraphic" in2="effect1_dropShadow" result="shape"/>
</filter>
<filter id="filter2_d" x="8.55498" y="6.67985" width="22.4902" height="22.4902" filterUnits="userSpaceOnUse" color-interpolation-filters="sRGB">
<feFlood flood-opacity="0" result="BackgroundImageFix"/>
<feColorMatrix in="SourceAlpha" type="matrix" values="0 0 0 0 0 0 0 0 0 0 0 0 0 0 0 0 0 0 127 0"/>
<feOffset/>
<feGaussianBlur stdDeviation="1.08824"/>
<feColorMatrix type="matrix" values="0 0 0 0 0.352941 0 0 0 0 0.0745098 0 0 0 0 0.266667 0 0 0 0.4 0"/>
<feBlend mode="normal" in2="BackgroundImageFix" result="effect1_dropShadow"/>
<feBlend mode="normal" in="SourceGraphic" in2="effect1_dropShadow" result="shape"/>
</filter>
<filter id="filter3_i" x="10.7314" y="8.85632" width="18.1373" height="18.1373" filterUnits="userSpaceOnUse" color-interpolation-filters="sRGB">
<feFlood flood-opacity="0" result="BackgroundImageFix"/>
<feBlend mode="normal" in="SourceGraphic" in2="BackgroundImageFix" result="shape"/>
<feColorMatrix in="SourceAlpha" type="matrix" values="0 0 0 0 0 0 0 0 0 0 0 0 0 0 0 0 0 0 127 0" result="hardAlpha"/>
<feOffset/>
<feGaussianBlur stdDeviation="1.08824"/>
<feComposite in2="hardAlpha" operator="arithmetic" k2="-1" k3="1"/>
<feColorMatrix type="matrix" values="0 0 0 0 0 0 0 0 0 0 0 0 0 0 0 0 0 0 0.46 0"/>
<feBlend mode="normal" in2="shape" result="effect1_innerShadow"/>
</filter>
<linearGradient id="paint0_linear" x1="34.865" y1="20.7084" x2="3.3999" y2="20.7084" gradientUnits="userSpaceOnUse">
<stop stop-color="#CC5DAA"/>
<stop offset="1" stop-color="#962E76"/>
</linearGradient>
<linearGradient id="paint1_linear" x1="33.4086" y1="20.4552" x2="4.80395" y2="20.4552" gradientUnits="userSpaceOnUse">
<stop stop-color="#F485D2"/>
<stop offset="1" stop-color="#74245B"/>
</linearGradient>
</defs>
</svg>
