<svg width="33" height="33" viewBox="0 0 33 33" fill="none" xmlns="http://www.w3.org/2000/svg">
<g filter="url(#filter0_d)">
<rect x="3" y="27" width="27" height="27" rx="13.5" transform="rotate(-90 3 27)" fill="#B55096"/>
<rect x="3.72549" y="26.2745" width="25.549" height="25.549" rx="12.7745" transform="rotate(-90 3.72549 26.2745)" stroke="#961F71" stroke-width="1.45098"/>
</g>
<g filter="url(#filter1_d)">
<rect x="4.04993" y="25.95" width="24.75" height="24.75" rx="12.375" transform="rotate(-90 4.04993 25.95)" fill="#B55096"/>
<rect x="4.77542" y="25.2245" width="23.299" height="23.299" rx="11.6495" transform="rotate(-90 4.77542 25.2245)" stroke="url(#paint0_linear)" stroke-width="1.45098"/>
</g>
<g filter="url(#filter2_d)">
<rect x="5.17651" y="24.8971" width="22.5" height="22.5" rx="11.25" transform="rotate(-90 5.17651 24.8971)" fill="#B55096"/>
<rect x="5.902" y="24.1716" width="21.049" height="21.049" rx="10.5245" transform="rotate(-90 5.902 24.1716)" stroke="url(#paint1_linear)" stroke-width="1.45098"/>
</g>
<g filter="url(#filter3_d)">
<g filter="url(#filter4_i)">
<path fill-rule="evenodd" clip-rule="evenodd" d="M15.8633 17.9819C16.1757 18.2944 16.6823 18.2944 16.9947 17.9819L22.5036 12.473C22.816 12.1606 22.816 11.6541 22.5036 11.3417C22.1912 11.0292 21.6846 11.0292 21.3722 11.3417L16.4308 16.2831L11.4689 11.3211C11.1564 11.0087 10.6499 11.0087 10.3375 11.3211C10.0251 11.6336 10.0251 12.1401 10.3375 12.4525L15.8123 17.9273C15.8146 17.9296 15.8169 17.9319 15.8193 17.9342C15.8332 17.9506 15.8479 17.9665 15.8633 17.9819Z" fill="white"/>
</g>
</g>
<defs>
<filter id="filter0_d" x="0.0980396" y="0" width="32.8039" height="32.8039" filterUnits="userSpaceOnUse" color-interpolation-filters="sRGB">
<feFlood flood-opacity="0" result="BackgroundImageFix"/>
<feColorMatrix in="SourceAlpha" type="matrix" values="0 0 0 0 0 0 0 0 0 0 0 0 0 0 0 0 0 0 127 0"/>
<feOffset dy="2.90196"/>
<feGaussianBlur stdDeviation="1.45098"/>
<feColorMatrix type="matrix" values="0 0 0 0 0 0 0 0 0 0 0 0 0 0 0 0 0 0 0.25 0"/>
<feBlend mode="normal" in2="BackgroundImageFix" result="effect1_dropShadow"/>
<feBlend mode="normal" in="SourceGraphic" in2="effect1_dropShadow" result="shape"/>
</filter>
<filter id="filter1_d" x="1.14797" y="1.20001" width="30.5539" height="30.5539" filterUnits="userSpaceOnUse" color-interpolation-filters="sRGB">
<feFlood flood-opacity="0" result="BackgroundImageFix"/>
<feColorMatrix in="SourceAlpha" type="matrix" values="0 0 0 0 0 0 0 0 0 0 0 0 0 0 0 0 0 0 127 0"/>
<feOffset dy="2.90196"/>
<feGaussianBlur stdDeviation="1.45098"/>
<feColorMatrix type="matrix" values="0 0 0 0 0 0 0 0 0 0 0 0 0 0 0 0 0 0 0.25 0"/>
<feBlend mode="normal" in2="BackgroundImageFix" result="effect1_dropShadow"/>
<feBlend mode="normal" in="SourceGraphic" in2="effect1_dropShadow" result="shape"/>
</filter>
<filter id="filter2_d" x="2.27455" y="2.39709" width="28.3039" height="28.3039" filterUnits="userSpaceOnUse" color-interpolation-filters="sRGB">
<feFlood flood-opacity="0" result="BackgroundImageFix"/>
<feColorMatrix in="SourceAlpha" type="matrix" values="0 0 0 0 0 0 0 0 0 0 0 0 0 0 0 0 0 0 127 0"/>
<feOffset dy="2.90196"/>
<feGaussianBlur stdDeviation="1.45098"/>
<feColorMatrix type="matrix" values="0 0 0 0 0 0 0 0 0 0 0 0 0 0 0 0 0 0 0.25 0"/>
<feBlend mode="normal" in2="BackgroundImageFix" result="effect1_dropShadow"/>
<feBlend mode="normal" in="SourceGraphic" in2="effect1_dropShadow" result="shape"/>
</filter>
<filter id="filter3_d" x="7.59355" y="3.07188" width="17.6522" height="17.6522" filterUnits="userSpaceOnUse" color-interpolation-filters="sRGB">
<feFlood flood-opacity="0" result="BackgroundImageFix"/>
<feColorMatrix in="SourceAlpha" type="matrix" values="0 0 0 0 0 0 0 0 0 0 0 0 0 0 0 0 0 0 127 0"/>
<feOffset/>
<feGaussianBlur stdDeviation="1.08824"/>
<feColorMatrix type="matrix" values="0 0 0 0 0.352941 0 0 0 0 0.0745098 0 0 0 0 0.266667 0 0 0 0.4 0"/>
<feBlend mode="normal" in2="BackgroundImageFix" result="effect1_dropShadow"/>
<feBlend mode="normal" in="SourceGraphic" in2="effect1_dropShadow" result="shape"/>
</filter>
<filter id="filter4_i" x="9.77002" y="5.24835" width="13.2993" height="13.2993" filterUnits="userSpaceOnUse" color-interpolation-filters="sRGB">
<feFlood flood-opacity="0" result="BackgroundImageFix"/>
<feBlend mode="normal" in="SourceGraphic" in2="BackgroundImageFix" result="shape"/>
<feColorMatrix in="SourceAlpha" type="matrix" values="0 0 0 0 0 0 0 0 0 0 0 0 0 0 0 0 0 0 127 0" result="hardAlpha"/>
<feOffset/>
<feGaussianBlur stdDeviation="1.08824"/>
<feComposite in2="hardAlpha" operator="arithmetic" k2="-1" k3="1"/>
<feColorMatrix type="matrix" values="0 0 0 0 0 0 0 0 0 0 0 0 0 0 0 0 0 0 0.46 0"/>
<feBlend mode="normal" in2="shape" result="effect1_innerShadow"/>
</filter>
<linearGradient id="paint0_linear" x1="27.6488" y1="40.4314" x2="4.04993" y2="40.4314" gradientUnits="userSpaceOnUse">
<stop stop-color="#CC5DAA"/>
<stop offset="1" stop-color="#962E76"/>
</linearGradient>
<linearGradient id="paint1_linear" x1="26.63" y1="38.062" x2="5.17651" y2="38.062" gradientUnits="userSpaceOnUse">
<stop stop-color="#F485D2"/>
<stop offset="1" stop-color="#74245B"/>
</linearGradient>
</defs>
</svg>
