<svg width="29" height="30" viewBox="0 0 29 30" fill="none" xmlns="http://www.w3.org/2000/svg">
<path fill-rule="evenodd" clip-rule="evenodd" d="M13.3417 5.51619L11.9193 6.93858C11.4358 7.42205 10.652 7.42205 10.1685 6.93858C9.68505 6.45511 9.68504 5.67125 10.1685 5.18778L13.7626 1.59374C13.9249 1.43142 14.1211 1.3236 14.3284 1.27027C14.7543 1.13645 15.2383 1.23832 15.5759 1.57588L19.191 5.19097C19.6744 5.67444 19.6744 6.4583 19.191 6.94177C18.7075 7.42524 17.9236 7.42524 17.4402 6.94177L15.942 5.44358L15.942 27.3311C15.942 28.0492 15.3599 28.6313 14.6418 28.6313C13.9238 28.6313 13.3417 28.0492 13.3417 27.3311L13.3417 5.51619Z" fill="white"/>
</svg>
