<svg width="43" height="43" viewBox="0 0 43 43" fill="none" xmlns="http://www.w3.org/2000/svg">
<path d="M42.7714 17.8795L41.0729 12.4641C40.8895 11.8382 40.5819 11.2556 40.1684 10.7512C39.7549 10.2467 39.244 9.83062 38.6662 9.52779C38.0883 9.22495 37.4553 9.04155 36.805 8.98851C36.1547 8.93548 35.5004 9.0139 34.8811 9.21911L34.1501 9.4555C33.5775 9.6447 32.9675 9.69271 32.3723 9.59542C31.7771 9.49813 31.2142 9.25844 30.7317 8.89676L30.4952 8.72484C30.0243 8.36462 29.6448 7.89883 29.3871 7.36504C29.1294 6.83124 29.0008 6.24439 29.0117 5.65181V5.05009C29.0222 3.70059 28.4964 2.40211 27.5498 1.43981C27.0995 0.985203 26.5639 0.623981 25.9735 0.376894C25.3832 0.129807 24.7499 0.00172389 24.1099 0H18.6275C17.3121 0.0169904 16.0567 0.5527 15.1346 1.49049C14.2125 2.42829 13.6984 3.69222 13.7041 5.00711V5.52287C13.7021 6.14666 13.56 6.76203 13.2884 7.32364C13.0167 7.88524 12.6225 8.37876 12.1347 8.76782L11.8552 8.98272C11.3163 9.39021 10.686 9.65999 10.019 9.7686C9.35211 9.87721 8.66872 9.82136 8.02829 9.60592C7.4401 9.40247 6.81672 9.32042 6.19589 9.36475C5.57505 9.40907 4.96967 9.57885 4.41638 9.8638C3.84031 10.1496 3.32925 10.5508 2.91499 11.0425C2.50074 11.5342 2.19215 12.1059 2.00845 12.7219L0.245492 18.3093C-0.163337 19.569 -0.0584921 20.9391 0.537259 22.122C1.13301 23.3049 2.17157 24.2052 3.42741 24.6273H3.7714C4.35072 24.8443 4.87068 25.1948 5.28906 25.6503C5.70745 26.1058 6.01246 26.6536 6.17934 27.249L6.30833 27.5929C6.548 28.2507 6.62815 28.956 6.54219 29.6509C6.45623 30.3457 6.20662 31.0103 5.81385 31.59C5.01883 32.6722 4.6835 34.0244 4.88078 35.3524C5.07807 36.6805 5.79202 37.877 6.86732 38.6816L11.3177 42.0555C12.1604 42.6679 13.1783 42.992 14.2201 42.9795C14.499 43.0068 14.7798 43.0068 15.0586 42.9795C15.7038 42.8547 16.3168 42.5998 16.8602 42.2303C17.4035 41.8608 17.8659 41.3845 18.219 40.8305L18.7135 40.1214C19.0604 39.624 19.5194 39.2152 20.0534 38.9277C20.5874 38.6403 21.1816 38.4824 21.7879 38.4667C22.4234 38.451 23.0524 38.5966 23.6163 38.8897C24.1803 39.1828 24.6607 39.6139 25.0129 40.1429L25.2708 40.5082C25.6374 41.0535 26.1118 41.518 26.6647 41.8732C27.2176 42.2283 27.8375 42.4666 28.486 42.5733C29.1345 42.6799 29.798 42.6528 30.4357 42.4936C31.0733 42.3343 31.6716 42.0462 32.1937 41.6472L36.558 38.3807C37.59 37.5796 38.2762 36.4143 38.4761 35.1237C38.676 33.8331 38.3743 32.515 37.633 31.4395L37.074 30.6229C36.7379 30.1038 36.5178 29.5183 36.4287 28.9063C36.3397 28.2944 36.3838 27.6704 36.558 27.0771C36.7357 26.4419 37.0653 25.8596 37.5186 25.3803C37.9718 24.9011 38.535 24.5393 39.1595 24.3264L39.5895 24.176C40.8337 23.7444 41.8612 22.8463 42.455 21.6713C43.0488 20.4963 43.1622 19.1365 42.7714 17.8795ZM21.5084 29.0112C20.0202 29.0112 18.5653 28.5701 17.3279 27.7436C16.0904 26.9171 15.126 25.7424 14.5564 24.3681C13.9869 22.9937 13.8379 21.4814 14.1282 20.0224C14.4186 18.5634 15.1352 17.2232 16.1876 16.1713C17.24 15.1194 18.5808 14.4031 20.0404 14.1129C21.5001 13.8227 23.0131 13.9716 24.3881 14.5409C25.763 15.1102 26.9383 16.0742 27.7651 17.3111C28.5919 18.548 29.0332 20.0022 29.0332 21.4898C29.0332 23.4846 28.2405 25.3977 26.8293 26.8082C25.4181 28.2187 23.5041 29.0112 21.5084 29.0112Z" fill="white"/>
</svg>
