<svg width="36" height="43" viewBox="0 0 36 43" fill="none" xmlns="http://www.w3.org/2000/svg">
<path fill-rule="evenodd" clip-rule="evenodd" d="M10.4884 3.80288C14.7582 -1.26762 22.7799 -1.26763 26.4802 3.80287C31.4022 10.5477 32.7084 20.8459 34.6059 35.807V35.807L34.606 35.8075C34.8778 37.9504 35.1617 40.1891 35.4702 42.5266C35.5018 42.7663 35.3106 42.9805 35.069 42.9713L0.375758 41.6534C0.149501 41.6448 -0.0232127 41.4571 0.00254895 41.2321C0.885912 33.5187 4.35898 11.0816 10.4884 3.80288ZM12.0408 4.97311C16.0916 0.553899 21.158 1.21893 24.5223 4.58311C26.829 6.88971 29.8875 14.1077 31.1011 24.0388C31.1294 24.2702 30.9485 24.4754 30.7153 24.4754L5.45961 24.4753C5.22578 24.4753 5.04466 24.2689 5.074 24.0369C6.26674 14.6055 9.08703 8.19554 12.0408 4.97311ZM17.5091 29.936C18.5862 29.936 19.4594 29.0628 19.4594 27.9857C19.4594 26.9086 18.5862 26.0355 17.5091 26.0355C16.4321 26.0355 15.5589 26.9086 15.5589 27.9857C15.5589 29.0628 16.4321 29.936 17.5091 29.936Z" fill="white"/>
</svg>
