<svg width="84" height="101" viewBox="0 0 84 101" fill="none" xmlns="http://www.w3.org/2000/svg">
<mask id="path-1-outside-1" maskUnits="userSpaceOnUse" x="0" y="0.000244141" width="84" height="101" fill="black">
<rect fill="white" y="0.000244141" width="84" height="101"/>
<path fill-rule="evenodd" clip-rule="evenodd" d="M25.6535 10.5765C35.2828 -0.858488 53.3731 -0.858514 61.718 10.5765C72.8182 25.7874 75.7638 49.0118 80.0432 82.7521L80.0433 82.7524C80.6563 87.5855 81.2966 92.6342 81.9922 97.9062C82.0635 98.4467 81.6324 98.9298 81.0876 98.9091L2.84741 95.9369C2.33715 95.9175 1.94765 95.4941 2.00575 94.9868C3.99791 77.5914 11.8304 26.9915 25.6535 10.5765ZM29.1549 13.2159C38.2902 3.24972 49.716 4.74949 57.3031 12.3364C62.5051 17.5382 69.4027 33.8162 72.1396 56.2127C72.2034 56.7348 71.7953 57.1973 71.2694 57.1973L14.3129 57.1973C13.7856 57.1973 13.3771 56.7317 13.4433 56.2086C16.1332 34.9388 22.4935 20.4831 29.1549 13.2159ZM41.4865 69.5132C43.9156 69.5132 45.8847 67.5441 45.8847 65.115C45.8847 62.686 43.9156 60.7169 41.4865 60.7169C39.0575 60.7169 37.0884 62.686 37.0884 65.115C37.0884 67.5441 39.0575 69.5132 41.4865 69.5132Z"/>
</mask>
<path fill-rule="evenodd" clip-rule="evenodd" d="M25.6535 10.5765C35.2828 -0.858488 53.3731 -0.858514 61.718 10.5765C72.8182 25.7874 75.7638 49.0118 80.0432 82.7521L80.0433 82.7524C80.6563 87.5855 81.2966 92.6342 81.9922 97.9062C82.0635 98.4467 81.6324 98.9298 81.0876 98.9091L2.84741 95.9369C2.33715 95.9175 1.94765 95.4941 2.00575 94.9868C3.99791 77.5914 11.8304 26.9915 25.6535 10.5765ZM29.1549 13.2159C38.2902 3.24972 49.716 4.74949 57.3031 12.3364C62.5051 17.5382 69.4027 33.8162 72.1396 56.2127C72.2034 56.7348 71.7953 57.1973 71.2694 57.1973L14.3129 57.1973C13.7856 57.1973 13.3771 56.7317 13.4433 56.2086C16.1332 34.9388 22.4935 20.4831 29.1549 13.2159ZM41.4865 69.5132C43.9156 69.5132 45.8847 67.5441 45.8847 65.115C45.8847 62.686 43.9156 60.7169 41.4865 60.7169C39.0575 60.7169 37.0884 62.686 37.0884 65.115C37.0884 67.5441 39.0575 69.5132 41.4865 69.5132Z" fill="url(#paint0_linear)"/>
<path d="M61.718 10.5765L62.9851 9.65179L62.9851 9.65177L61.718 10.5765ZM25.6535 10.5765L26.8534 11.5869L26.8534 11.5869L25.6535 10.5765ZM80.0432 82.7521L78.487 82.9495L78.4884 82.9594L80.0432 82.7521ZM80.0433 82.7524L81.5995 82.5551L81.5981 82.5451L80.0433 82.7524ZM81.9922 97.9062L80.4371 98.1114V98.1114L81.9922 97.9062ZM81.0876 98.9091L81.1471 97.3416L81.0876 98.9091ZM2.84741 95.9369L2.90696 94.3694H2.90694L2.84741 95.9369ZM2.00575 94.9868L3.56419 95.1653H3.56419L2.00575 94.9868ZM57.3031 12.3364L56.1939 13.4456L57.3031 12.3364ZM29.1549 13.2159L30.3112 14.2758L29.1549 13.2159ZM72.1396 56.2127L73.6967 56.0225V56.0225L72.1396 56.2127ZM71.2694 57.1973V58.766V57.1973ZM14.3129 57.1973L14.3129 55.6286H14.3129V57.1973ZM13.4433 56.2086L14.9995 56.4054L13.4433 56.2086ZM62.9851 9.65177C53.9719 -2.69895 34.6615 -2.55603 24.4536 9.5661L26.8534 11.5869C35.904 0.839057 52.7743 0.981918 60.4509 11.5012L62.9851 9.65177ZM81.5994 82.5547C79.4627 65.7084 77.6477 51.3862 74.9695 39.3744C72.2899 27.3565 68.7181 17.5079 62.9851 9.65179L60.4509 11.5011C65.8181 18.856 69.2693 28.225 71.9074 40.0571C74.5469 51.8954 76.3444 66.0555 78.4871 82.9495L81.5994 82.5547ZM81.5981 82.5451L81.5981 82.5448L78.4884 82.9594L78.4884 82.9597L81.5981 82.5451ZM83.5474 97.701C82.8523 92.4336 82.2125 87.3886 81.5994 82.5551L78.4871 82.9498C79.1 87.7824 79.7409 92.8349 80.4371 98.1114L83.5474 97.701ZM81.028 100.477C82.5654 100.535 83.743 99.1837 83.5474 97.7009L80.4371 98.1114C80.3841 97.7097 80.6995 97.3246 81.1471 97.3416L81.028 100.477ZM2.78786 97.5044L81.028 100.477L81.1471 97.3416L2.90696 94.3694L2.78786 97.5044ZM0.447307 94.8084C0.277873 96.2878 1.43147 97.4529 2.78788 97.5044L2.90694 94.3694C3.24284 94.3822 3.61743 94.7004 3.56419 95.1653L0.447307 94.8084ZM24.4536 9.56609C20.8216 13.8791 17.6649 20.3228 14.9359 27.7002C12.1959 35.1071 9.8414 43.5831 7.86536 52.0578C3.91321 69.0075 1.44825 86.0682 0.447307 94.8084L3.56419 95.1653C4.55541 86.5101 7.00275 69.5731 10.9207 52.7702C12.8796 44.3686 15.1997 36.0296 17.8783 28.7887C20.5678 21.5183 23.5738 15.4814 26.8534 11.5869L24.4536 9.56609ZM58.4122 11.2272C54.3828 7.19788 49.2567 4.71029 43.8341 4.6253C38.3815 4.53984 32.8278 6.88749 27.9985 12.156L30.3112 14.2758C34.6173 9.57813 39.3442 7.69257 43.785 7.76217C48.2559 7.83224 52.6362 9.88798 56.1939 13.4456L58.4122 11.2272ZM73.6967 56.0225C72.3151 44.7165 69.8809 34.9321 67.121 27.2935C64.3822 19.7131 61.2624 14.0773 58.4122 11.2272L56.1939 13.4456C58.5457 15.7973 61.4758 20.9014 64.1705 28.3596C66.8442 35.7596 69.2273 45.3125 70.5826 56.403L73.6967 56.0225ZM71.2694 58.766C72.7406 58.766 73.8743 57.4759 73.6967 56.0225L70.5826 56.403C70.5326 55.9936 70.8501 55.6287 71.2694 55.6287V58.766ZM14.3129 58.7659L71.2694 58.766V55.6287L14.3129 55.6286L14.3129 58.7659ZM11.8871 56.0118C11.703 57.4672 12.8365 58.7659 14.3129 58.7659V55.6286C14.7347 55.6286 15.0513 55.9962 14.9995 56.4054L11.8871 56.0118ZM27.9985 12.156C21.0288 19.7595 14.5973 34.5811 11.8871 56.0118L14.9995 56.4054C17.6691 35.2965 23.9581 21.2067 30.3112 14.2758L27.9985 12.156ZM44.3161 65.115C44.3161 66.6777 43.0492 67.9445 41.4865 67.9445V71.0818C44.7819 71.0818 47.4533 68.4104 47.4533 65.115H44.3161ZM41.4865 62.2855C43.0492 62.2855 44.3161 63.5523 44.3161 65.115H47.4533C47.4533 61.8197 44.7819 59.1482 41.4865 59.1482V62.2855ZM38.657 65.115C38.657 63.5523 39.9238 62.2855 41.4865 62.2855V59.1482C38.1912 59.1482 35.5197 61.8197 35.5197 65.115H38.657ZM41.4865 67.9445C39.9238 67.9445 38.657 66.6777 38.657 65.115H35.5197C35.5197 68.4104 38.1912 71.0818 41.4865 71.0818V67.9445Z" fill="#FCE651" mask="url(#path-1-outside-1)"/>
<defs>
<linearGradient id="paint0_linear" x1="42" y1="2.00024" x2="42" y2="98.9098" gradientUnits="userSpaceOnUse">
<stop stop-color="#FBEF51"/>
<stop offset="1" stop-color="#D6723E"/>
</linearGradient>
</defs>
</svg>
