<svg width="33" height="33" viewBox="0 0 33 33" fill="none" xmlns="http://www.w3.org/2000/svg">
<g filter="url(#filter0_d)">
<rect x="3" y="27" width="27" height="27" rx="7" transform="rotate(-90 3 27)" fill="#B55096"/>
<rect x="3.72549" y="26.2745" width="25.549" height="25.549" rx="6.27451" transform="rotate(-90 3.72549 26.2745)" stroke="#961F71" stroke-width="1.45098"/>
</g>
<g filter="url(#filter1_d)">
<rect x="4.05005" y="25.9502" width="24.75" height="24.75" rx="6" transform="rotate(-90 4.05005 25.9502)" fill="#B55096"/>
<rect x="4.77554" y="25.2247" width="23.299" height="23.299" rx="5.27451" transform="rotate(-90 4.77554 25.2247)" stroke="url(#paint0_linear)" stroke-width="1.45098"/>
</g>
<g filter="url(#filter2_d)">
<rect x="5.17651" y="24.8975" width="22.5" height="22.5" rx="5" transform="rotate(-90 5.17651 24.8975)" fill="#B55096"/>
<rect x="5.902" y="24.172" width="21.049" height="21.049" rx="4.27451" transform="rotate(-90 5.902 24.172)" stroke="url(#paint1_linear)" stroke-width="1.45098"/>
</g>
<g filter="url(#filter3_d)">
<g filter="url(#filter4_i)">
<path d="M17.586 6.9996C18.46 6.9996 18.8969 7.5468 18.8969 8.1738C18.8969 8.9568 18.1378 9.681 17.1497 9.681C16.3221 9.681 15.8395 9.231 15.8623 8.487C15.8623 7.8612 16.4369 6.9996 17.586 6.9996ZM14.8971 18.9996C14.2071 18.9996 13.7017 18.6084 14.1843 16.8852L14.976 13.83C15.1136 13.3416 15.1365 13.1454 14.976 13.1454C14.7693 13.1454 13.8745 13.4826 13.3443 13.8156L13 13.2876C14.6773 11.976 16.6071 11.2074 17.4354 11.2074C18.1247 11.2074 18.2395 11.9712 17.8952 13.1454L16.988 16.3566C16.8276 16.9236 16.896 17.1192 17.0571 17.1192C17.2639 17.1192 17.9421 16.884 18.6086 16.395L19 16.8834C17.3682 18.4116 15.5858 18.9996 14.8971 18.9996Z" fill="white"/>
</g>
</g>
<defs>
<filter id="filter0_d" x="0.0980396" y="0" width="32.8039" height="32.8039" filterUnits="userSpaceOnUse" color-interpolation-filters="sRGB">
<feFlood flood-opacity="0" result="BackgroundImageFix"/>
<feColorMatrix in="SourceAlpha" type="matrix" values="0 0 0 0 0 0 0 0 0 0 0 0 0 0 0 0 0 0 127 0"/>
<feOffset dy="2.90196"/>
<feGaussianBlur stdDeviation="1.45098"/>
<feColorMatrix type="matrix" values="0 0 0 0 0 0 0 0 0 0 0 0 0 0 0 0 0 0 0.25 0"/>
<feBlend mode="normal" in2="BackgroundImageFix" result="effect1_dropShadow"/>
<feBlend mode="normal" in="SourceGraphic" in2="effect1_dropShadow" result="shape"/>
</filter>
<filter id="filter1_d" x="1.14809" y="1.2002" width="30.5539" height="30.5539" filterUnits="userSpaceOnUse" color-interpolation-filters="sRGB">
<feFlood flood-opacity="0" result="BackgroundImageFix"/>
<feColorMatrix in="SourceAlpha" type="matrix" values="0 0 0 0 0 0 0 0 0 0 0 0 0 0 0 0 0 0 127 0"/>
<feOffset dy="2.90196"/>
<feGaussianBlur stdDeviation="1.45098"/>
<feColorMatrix type="matrix" values="0 0 0 0 0 0 0 0 0 0 0 0 0 0 0 0 0 0 0.25 0"/>
<feBlend mode="normal" in2="BackgroundImageFix" result="effect1_dropShadow"/>
<feBlend mode="normal" in="SourceGraphic" in2="effect1_dropShadow" result="shape"/>
</filter>
<filter id="filter2_d" x="2.27455" y="2.39746" width="28.3039" height="28.3039" filterUnits="userSpaceOnUse" color-interpolation-filters="sRGB">
<feFlood flood-opacity="0" result="BackgroundImageFix"/>
<feColorMatrix in="SourceAlpha" type="matrix" values="0 0 0 0 0 0 0 0 0 0 0 0 0 0 0 0 0 0 127 0"/>
<feOffset dy="2.90196"/>
<feGaussianBlur stdDeviation="1.45098"/>
<feColorMatrix type="matrix" values="0 0 0 0 0 0 0 0 0 0 0 0 0 0 0 0 0 0 0.25 0"/>
<feBlend mode="normal" in2="BackgroundImageFix" result="effect1_dropShadow"/>
<feBlend mode="normal" in="SourceGraphic" in2="effect1_dropShadow" result="shape"/>
</filter>
<filter id="filter3_d" x="10.8235" y="4.82353" width="10.3529" height="16.3529" filterUnits="userSpaceOnUse" color-interpolation-filters="sRGB">
<feFlood flood-opacity="0" result="BackgroundImageFix"/>
<feColorMatrix in="SourceAlpha" type="matrix" values="0 0 0 0 0 0 0 0 0 0 0 0 0 0 0 0 0 0 127 0"/>
<feOffset/>
<feGaussianBlur stdDeviation="1.08824"/>
<feColorMatrix type="matrix" values="0 0 0 0 0.352941 0 0 0 0 0.0745098 0 0 0 0 0.266667 0 0 0 0.4 0"/>
<feBlend mode="normal" in2="BackgroundImageFix" result="effect1_dropShadow"/>
<feBlend mode="normal" in="SourceGraphic" in2="effect1_dropShadow" result="shape"/>
</filter>
<filter id="filter4_i" x="13" y="7" width="6" height="12" filterUnits="userSpaceOnUse" color-interpolation-filters="sRGB">
<feFlood flood-opacity="0" result="BackgroundImageFix"/>
<feBlend mode="normal" in="SourceGraphic" in2="BackgroundImageFix" result="shape"/>
<feColorMatrix in="SourceAlpha" type="matrix" values="0 0 0 0 0 0 0 0 0 0 0 0 0 0 0 0 0 0 127 0" result="hardAlpha"/>
<feOffset/>
<feGaussianBlur stdDeviation="1.08824"/>
<feComposite in2="hardAlpha" operator="arithmetic" k2="-1" k3="1"/>
<feColorMatrix type="matrix" values="0 0 0 0 0 0 0 0 0 0 0 0 0 0 0 0 0 0 0.46 0"/>
<feBlend mode="normal" in2="shape" result="effect1_innerShadow"/>
</filter>
<linearGradient id="paint0_linear" x1="27.6489" y1="40.4316" x2="4.05005" y2="40.4316" gradientUnits="userSpaceOnUse">
<stop stop-color="#CC5DAA"/>
<stop offset="1" stop-color="#962E76"/>
</linearGradient>
<linearGradient id="paint1_linear" x1="26.63" y1="38.0624" x2="5.17651" y2="38.0624" gradientUnits="userSpaceOnUse">
<stop stop-color="#F485D2"/>
<stop offset="1" stop-color="#74245B"/>
</linearGradient>
</defs>
</svg>
