<svg width="33" height="33" viewBox="0 0 33 33" fill="none" xmlns="http://www.w3.org/2000/svg">
<g filter="url(#filter0_d)">
<rect width="27" height="27" rx="13.5" transform="matrix(-4.37114e-08 -1 -1 4.37114e-08 30 27)" fill="#B55096"/>
<rect x="-0.72549" y="-0.72549" width="25.549" height="25.549" rx="12.7745" transform="matrix(-4.37114e-08 -1 -1 4.37114e-08 28.549 25.549)" stroke="#961F71" stroke-width="1.45098"/>
</g>
<g filter="url(#filter1_d)">
<rect width="24.75" height="24.75" rx="12.375" transform="matrix(-4.37114e-08 -1 -1 4.37114e-08 28.9502 25.95)" fill="#B55096"/>
<rect x="-0.72549" y="-0.72549" width="23.299" height="23.299" rx="11.6495" transform="matrix(-4.37114e-08 -1 -1 4.37114e-08 27.4992 24.499)" stroke="url(#paint0_linear)" stroke-width="1.45098"/>
</g>
<g filter="url(#filter2_d)">
<rect width="22.5" height="22.5" rx="11.25" transform="matrix(-4.37114e-08 -1 -1 4.37114e-08 27.8237 24.8972)" fill="#B55096"/>
<rect x="-0.72549" y="-0.72549" width="21.049" height="21.049" rx="10.5245" transform="matrix(-4.37114e-08 -1 -1 4.37114e-08 26.3728 23.4462)" stroke="url(#paint1_linear)" stroke-width="1.45098"/>
</g>
<g filter="url(#filter3_d)">
<g filter="url(#filter4_i)">
<path fill-rule="evenodd" clip-rule="evenodd" d="M20.0574 6.59502C20.8011 7.33874 20.8011 8.54455 20.0574 9.28827L15.8135 13.5322L20.0624 17.781C20.8061 18.5247 20.8061 19.7305 20.0624 20.4743C19.3186 21.218 18.1128 21.218 17.3691 20.4743L11.8081 14.9132C11.2889 14.3941 11.1322 13.6499 11.3377 12.9948C11.4197 12.6756 11.5856 12.3736 11.8355 12.1237L17.3642 6.59502C18.1079 5.8513 19.3137 5.8513 20.0574 6.59502Z" fill="white"/>
</g>
</g>
<defs>
<filter id="filter0_d" x="0.0980396" y="0" width="32.8039" height="32.8039" filterUnits="userSpaceOnUse" color-interpolation-filters="sRGB">
<feFlood flood-opacity="0" result="BackgroundImageFix"/>
<feColorMatrix in="SourceAlpha" type="matrix" values="0 0 0 0 0 0 0 0 0 0 0 0 0 0 0 0 0 0 127 0"/>
<feOffset dy="2.90196"/>
<feGaussianBlur stdDeviation="1.45098"/>
<feColorMatrix type="matrix" values="0 0 0 0 0 0 0 0 0 0 0 0 0 0 0 0 0 0 0.25 0"/>
<feBlend mode="normal" in2="BackgroundImageFix" result="effect1_dropShadow"/>
<feBlend mode="normal" in="SourceGraphic" in2="effect1_dropShadow" result="shape"/>
</filter>
<filter id="filter1_d" x="1.29823" y="1.19995" width="30.5539" height="30.5539" filterUnits="userSpaceOnUse" color-interpolation-filters="sRGB">
<feFlood flood-opacity="0" result="BackgroundImageFix"/>
<feColorMatrix in="SourceAlpha" type="matrix" values="0 0 0 0 0 0 0 0 0 0 0 0 0 0 0 0 0 0 127 0"/>
<feOffset dy="2.90196"/>
<feGaussianBlur stdDeviation="1.45098"/>
<feColorMatrix type="matrix" values="0 0 0 0 0 0 0 0 0 0 0 0 0 0 0 0 0 0 0.25 0"/>
<feBlend mode="normal" in2="BackgroundImageFix" result="effect1_dropShadow"/>
<feBlend mode="normal" in="SourceGraphic" in2="effect1_dropShadow" result="shape"/>
</filter>
<filter id="filter2_d" x="2.42177" y="2.39722" width="28.3039" height="28.3039" filterUnits="userSpaceOnUse" color-interpolation-filters="sRGB">
<feFlood flood-opacity="0" result="BackgroundImageFix"/>
<feColorMatrix in="SourceAlpha" type="matrix" values="0 0 0 0 0 0 0 0 0 0 0 0 0 0 0 0 0 0 127 0"/>
<feOffset dy="2.90196"/>
<feGaussianBlur stdDeviation="1.45098"/>
<feColorMatrix type="matrix" values="0 0 0 0 0 0 0 0 0 0 0 0 0 0 0 0 0 0 0.25 0"/>
<feBlend mode="normal" in2="BackgroundImageFix" result="effect1_dropShadow"/>
<feBlend mode="normal" in="SourceGraphic" in2="effect1_dropShadow" result="shape"/>
</filter>
<filter id="filter3_d" x="8.25078" y="3.07182" width="20.9254" height="20.9254" filterUnits="userSpaceOnUse" color-interpolation-filters="sRGB">
<feFlood flood-opacity="0" result="BackgroundImageFix"/>
<feColorMatrix in="SourceAlpha" type="matrix" values="0 0 0 0 0 0 0 0 0 0 0 0 0 0 0 0 0 0 127 0"/>
<feOffset/>
<feGaussianBlur stdDeviation="1.08824"/>
<feColorMatrix type="matrix" values="0 0 0 0 0.352941 0 0 0 0 0.0745098 0 0 0 0 0.266667 0 0 0 0.4 0"/>
<feBlend mode="normal" in2="BackgroundImageFix" result="effect1_dropShadow"/>
<feBlend mode="normal" in="SourceGraphic" in2="effect1_dropShadow" result="shape"/>
</filter>
<filter id="filter4_i" x="10.4272" y="5.24829" width="16.5725" height="16.5725" filterUnits="userSpaceOnUse" color-interpolation-filters="sRGB">
<feFlood flood-opacity="0" result="BackgroundImageFix"/>
<feBlend mode="normal" in="SourceGraphic" in2="BackgroundImageFix" result="shape"/>
<feColorMatrix in="SourceAlpha" type="matrix" values="0 0 0 0 0 0 0 0 0 0 0 0 0 0 0 0 0 0 127 0" result="hardAlpha"/>
<feOffset/>
<feGaussianBlur stdDeviation="1.08824"/>
<feComposite in2="hardAlpha" operator="arithmetic" k2="-1" k3="1"/>
<feColorMatrix type="matrix" values="0 0 0 0 0 0 0 0 0 0 0 0 0 0 0 0 0 0 0.46 0"/>
<feBlend mode="normal" in2="shape" result="effect1_innerShadow"/>
</filter>
<linearGradient id="paint0_linear" x1="23.5988" y1="14.4814" x2="-1.10575e-06" y2="14.4814" gradientUnits="userSpaceOnUse">
<stop stop-color="#CC5DAA"/>
<stop offset="1" stop-color="#962E76"/>
</linearGradient>
<linearGradient id="paint1_linear" x1="21.4535" y1="13.1649" x2="-1.00523e-06" y2="13.1649" gradientUnits="userSpaceOnUse">
<stop stop-color="#F485D2"/>
<stop offset="1" stop-color="#74245B"/>
</linearGradient>
</defs>
</svg>
