<svg width="30" height="30" viewBox="0 0 30 30" fill="none" xmlns="http://www.w3.org/2000/svg">
<path d="M18.8486 16.6558C20.0812 14.9738 20.6333 12.8884 20.3944 10.8167C20.1555 8.74514 19.1432 6.84013 17.56 5.48284C15.9768 4.12556 13.9396 3.41609 11.8558 3.49638C9.77196 3.57667 7.79532 4.4408 6.32129 5.91589C4.84726 7.39097 3.98455 9.36823 3.90575 11.4521C3.82695 13.5359 4.53787 15.5727 5.89629 17.1549C7.25471 18.7371 9.16044 19.748 11.2322 19.9855C13.304 20.2229 15.389 19.6693 17.0702 18.4355L17.0689 18.4355C17.1071 18.4864 17.1478 18.5348 17.1937 18.5819L22.0947 23.4829C22.3334 23.7218 22.6572 23.8561 22.9949 23.8562C23.3326 23.8563 23.6565 23.7223 23.8954 23.4836C24.1343 23.2449 24.2685 22.9211 24.2686 22.5834C24.2688 22.2457 24.1347 21.9218 23.896 21.6829L18.995 16.7818C18.9495 16.7358 18.9005 16.6932 18.8486 16.6545L18.8486 16.6558ZM19.177 11.7624C19.177 12.6818 18.9959 13.5923 18.644 14.4418C18.2922 15.2912 17.7765 16.0631 17.1263 16.7132C16.4762 17.3634 15.7043 17.8791 14.8549 18.2309C14.0054 18.5828 13.0949 18.7639 12.1755 18.7639C11.256 18.7639 10.3456 18.5828 9.49613 18.2309C8.64666 17.8791 7.87482 17.3634 7.22467 16.7132C6.57452 16.0631 6.05879 15.2912 5.70694 14.4418C5.35508 13.5923 5.17398 12.6818 5.17398 11.7624C5.17398 9.90548 5.91163 8.12462 7.22467 6.81158C8.53771 5.49854 10.3186 4.76089 12.1755 4.76088C14.0324 4.76089 15.8133 5.49854 17.1263 6.81158C18.4393 8.12462 19.177 9.90548 19.177 11.7624Z" fill="white"/>
</svg>
