<svg width="99" height="14" viewBox="0 0 99 14" fill="none" xmlns="http://www.w3.org/2000/svg">
<rect x="0.775985" y="0.775985" width="97.448" height="12.448" rx="6.22402" fill="url(#paint0_linear)" stroke="#2A7805" stroke-width="0.44803"/>
<rect x="2" y="1" width="96" height="12" rx="6" fill="url(#paint1_linear)"/>
<path d="M1 7C1 4.23858 3.23858 2 6 2H87V12H6C3.23858 12 1 9.76142 1 7V7Z" fill="url(#paint2_radial)" fill-opacity="0.7"/>
<path d="M1 7H98V7C98 10.3137 95.3137 13 92 13H7C3.68629 13 1 10.3137 1 7V7Z" fill="#C4C4C4"/>
<path d="M1 7H98V7C98 10.3137 95.3137 13 92 13H7C3.68629 13 1 10.3137 1 7V7Z" fill="url(#paint3_linear)"/>
<path d="M98 8C98 10.7614 95.7614 13 93 13L85 13C82.2386 13 80 10.7614 80 8V8C80 5.23858 82.2386 3 85 3L93 3C95.7614 3 98 5.23858 98 8V8Z" fill="url(#paint4_linear)" fill-opacity="0.7"/>
<defs>
<linearGradient id="paint0_linear" x1="61.5996" y1="1" x2="61.5996" y2="13" gradientUnits="userSpaceOnUse">
<stop stop-color="#4EEA05"/>
<stop offset="0.595695" stop-color="#319900"/>
<stop offset="1" stop-color="#319900"/>
</linearGradient>
<linearGradient id="paint1_linear" x1="61.9748" y1="1" x2="61.9748" y2="13" gradientUnits="userSpaceOnUse">
<stop stop-color="#56FF06"/>
<stop offset="0.494792" stop-color="#319900" stop-opacity="0.9"/>
<stop offset="1" stop-color="#319900"/>
</linearGradient>
<radialGradient id="paint2_radial" cx="0" cy="0" r="1" gradientUnits="userSpaceOnUse" gradientTransform="translate(7.33684 3.47727) rotate(66.5138) scale(1.36291 4.73279)">
<stop stop-color="white"/>
<stop offset="1" stop-color="white" stop-opacity="0"/>
</radialGradient>
<linearGradient id="paint3_linear" x1="56.5157" y1="13" x2="56.5157" y2="7" gradientUnits="userSpaceOnUse">
<stop stop-color="#267501"/>
<stop offset="1" stop-color="#319901"/>
<stop offset="1" stop-color="#3BB402"/>
</linearGradient>
<linearGradient id="paint4_linear" x1="96.966" y1="12.6591" x2="95.1204" y2="10.8863" gradientUnits="userSpaceOnUse">
<stop stop-color="#2A7B05"/>
<stop offset="0.546875" stop-color="#3B8618" stop-opacity="0.921875"/>
<stop offset="1" stop-color="#3B8618" stop-opacity="0"/>
</linearGradient>
</defs>
</svg>
