<svg width="119" height="119" viewBox="0 0 119 119" fill="none" xmlns="http://www.w3.org/2000/svg">
<circle cx="59.1688" cy="59.1688" r="51.0476" stroke="#BFCFFF" stroke-opacity="0.17" stroke-width="16.2424"/>
<path d="M8.27005 62.0775C3.70262 62.0775 -0.0567128 58.3633 0.39866 53.8186C2.343 34.4139 11.4772 19.5066 29.5 8.07756C47 -1.92247 67.5 -2.92245 88 7.57747C107 19.0775 115.5 34.5775 118 52.5776C118.212 56.1093 118.308 58.764 118.191 61.532C118.02 65.5911 114.48 68.5776 110.418 68.5776V68.5776C105.449 68.5776 101.71 64.1603 101.713 59.1919C101.722 43.8664 95.4744 32.2851 82.5 23.0776C71.5 14.5775 51.5 12.5775 35 23.5775C23.0555 32.9933 18.5912 40.6985 16.7478 54.3807C16.1669 58.6927 12.621 62.0775 8.27005 62.0775V62.0775Z" fill="#00E413"/>
</svg>
