<svg width="42" height="42" viewBox="0 0 42 42" fill="none" xmlns="http://www.w3.org/2000/svg">
<g filter="url(#filter0_d)">
<rect x="3" y="36" width="36" height="36" rx="18" transform="rotate(-90 3 36)" fill="#B55096"/>
<rect x="3.72549" y="35.2745" width="34.549" height="34.549" rx="17.2745" transform="rotate(-90 3.72549 35.2745)" stroke="#961F71" stroke-width="1.45098"/>
</g>
<g filter="url(#filter1_d)">
<rect x="4.3999" y="34.5996" width="33" height="33" rx="16.5" transform="rotate(-90 4.3999 34.5996)" fill="#B55096"/>
<rect x="5.12539" y="33.8741" width="31.549" height="31.549" rx="15.7745" transform="rotate(-90 5.12539 33.8741)" stroke="url(#paint0_linear)" stroke-width="1.45098"/>
</g>
<g filter="url(#filter2_d)">
<rect x="5.90186" y="33.1963" width="30" height="30" rx="15" transform="rotate(-90 5.90186 33.1963)" fill="#B55096"/>
<rect x="6.62735" y="32.4708" width="28.549" height="28.549" rx="14.2745" transform="rotate(-90 6.62735 32.4708)" stroke="url(#paint1_linear)" stroke-width="1.45098"/>
</g>
<g filter="url(#filter3_d)">
<g filter="url(#filter4_i)">
<path fill-rule="evenodd" clip-rule="evenodd" d="M14.5126 11.7877C13.521 12.7793 13.521 14.3871 14.5126 15.3787L17.3341 18.2002L14.5126 21.0217C13.521 22.0133 13.521 23.6211 14.5126 24.6127C15.5042 25.6043 17.112 25.6043 18.1036 24.6127L20.9251 21.7912L23.7466 24.6127C24.7382 25.6043 26.3459 25.6043 27.3376 24.6127C28.3292 23.6211 28.3292 22.0133 27.3376 21.0217L24.5161 18.2002L27.3376 15.3787C28.3292 14.3871 28.3292 12.7793 27.3376 11.7877C26.3459 10.7961 24.7382 10.7961 23.7466 11.7877L20.9251 14.6092L18.1036 11.7877C17.112 10.7961 15.5042 10.7961 14.5126 11.7877Z" fill="white"/>
</g>
</g>
<defs>
<filter id="filter0_d" x="0.0980396" y="0" width="41.8039" height="41.8039" filterUnits="userSpaceOnUse" color-interpolation-filters="sRGB">
<feFlood flood-opacity="0" result="BackgroundImageFix"/>
<feColorMatrix in="SourceAlpha" type="matrix" values="0 0 0 0 0 0 0 0 0 0 0 0 0 0 0 0 0 0 127 0"/>
<feOffset dy="2.90196"/>
<feGaussianBlur stdDeviation="1.45098"/>
<feColorMatrix type="matrix" values="0 0 0 0 0 0 0 0 0 0 0 0 0 0 0 0 0 0 0.25 0"/>
<feBlend mode="normal" in2="BackgroundImageFix" result="effect1_dropShadow"/>
<feBlend mode="normal" in="SourceGraphic" in2="effect1_dropShadow" result="shape"/>
</filter>
<filter id="filter1_d" x="1.49794" y="1.59961" width="38.8039" height="38.8039" filterUnits="userSpaceOnUse" color-interpolation-filters="sRGB">
<feFlood flood-opacity="0" result="BackgroundImageFix"/>
<feColorMatrix in="SourceAlpha" type="matrix" values="0 0 0 0 0 0 0 0 0 0 0 0 0 0 0 0 0 0 127 0"/>
<feOffset dy="2.90196"/>
<feGaussianBlur stdDeviation="1.45098"/>
<feColorMatrix type="matrix" values="0 0 0 0 0 0 0 0 0 0 0 0 0 0 0 0 0 0 0.25 0"/>
<feBlend mode="normal" in2="BackgroundImageFix" result="effect1_dropShadow"/>
<feBlend mode="normal" in="SourceGraphic" in2="effect1_dropShadow" result="shape"/>
</filter>
<filter id="filter2_d" x="2.9999" y="3.19629" width="35.8039" height="35.8039" filterUnits="userSpaceOnUse" color-interpolation-filters="sRGB">
<feFlood flood-opacity="0" result="BackgroundImageFix"/>
<feColorMatrix in="SourceAlpha" type="matrix" values="0 0 0 0 0 0 0 0 0 0 0 0 0 0 0 0 0 0 127 0"/>
<feOffset dy="2.90196"/>
<feGaussianBlur stdDeviation="1.45098"/>
<feColorMatrix type="matrix" values="0 0 0 0 0 0 0 0 0 0 0 0 0 0 0 0 0 0 0.25 0"/>
<feBlend mode="normal" in2="BackgroundImageFix" result="effect1_dropShadow"/>
<feBlend mode="normal" in="SourceGraphic" in2="effect1_dropShadow" result="shape"/>
</filter>
<filter id="filter3_d" x="11.5923" y="8.86748" width="18.6654" height="18.6654" filterUnits="userSpaceOnUse" color-interpolation-filters="sRGB">
<feFlood flood-opacity="0" result="BackgroundImageFix"/>
<feColorMatrix in="SourceAlpha" type="matrix" values="0 0 0 0 0 0 0 0 0 0 0 0 0 0 0 0 0 0 127 0"/>
<feOffset/>
<feGaussianBlur stdDeviation="1.08824"/>
<feColorMatrix type="matrix" values="0 0 0 0 0.352941 0 0 0 0 0.0745098 0 0 0 0 0.266667 0 0 0 0.4 0"/>
<feBlend mode="normal" in2="BackgroundImageFix" result="effect1_dropShadow"/>
<feBlend mode="normal" in="SourceGraphic" in2="effect1_dropShadow" result="shape"/>
</filter>
<filter id="filter4_i" x="13.7688" y="11.0439" width="14.3124" height="14.3124" filterUnits="userSpaceOnUse" color-interpolation-filters="sRGB">
<feFlood flood-opacity="0" result="BackgroundImageFix"/>
<feBlend mode="normal" in="SourceGraphic" in2="BackgroundImageFix" result="shape"/>
<feColorMatrix in="SourceAlpha" type="matrix" values="0 0 0 0 0 0 0 0 0 0 0 0 0 0 0 0 0 0 127 0" result="hardAlpha"/>
<feOffset/>
<feGaussianBlur stdDeviation="1.08824"/>
<feComposite in2="hardAlpha" operator="arithmetic" k2="-1" k3="1"/>
<feColorMatrix type="matrix" values="0 0 0 0 0 0 0 0 0 0 0 0 0 0 0 0 0 0 0.46 0"/>
<feBlend mode="normal" in2="shape" result="effect1_innerShadow"/>
</filter>
<linearGradient id="paint0_linear" x1="35.865" y1="53.9081" x2="4.3999" y2="53.9081" gradientUnits="userSpaceOnUse">
<stop stop-color="#CC5DAA"/>
<stop offset="1" stop-color="#962E76"/>
</linearGradient>
<linearGradient id="paint1_linear" x1="34.5065" y1="50.7495" x2="5.90185" y2="50.7495" gradientUnits="userSpaceOnUse">
<stop stop-color="#F485D2"/>
<stop offset="1" stop-color="#74245B"/>
</linearGradient>
</defs>
</svg>
