<svg width="21" height="21" viewBox="0 0 21 21" fill="none" xmlns="http://www.w3.org/2000/svg">
<path fill-rule="evenodd" clip-rule="evenodd" d="M8.37207 7.37039L6.11197 9.63049C5.36825 10.3742 4.16245 10.3742 3.41873 9.63049C2.67501 8.88677 2.67501 7.68096 3.41873 6.93724L8.94741 1.40856C9.19719 1.15878 9.4991 0.992885 9.81812 0.910884C10.4733 0.705165 11.2177 0.861905 11.7369 1.3811L17.2979 6.94216C18.0417 7.68588 18.0417 8.89168 17.2979 9.6354C16.5542 10.3791 15.3484 10.3791 14.6047 9.6354L12.3721 7.40277L12.3721 17.9001C12.3721 19.0047 11.4766 19.9001 10.3721 19.9001C9.2675 19.9001 8.37207 19.0047 8.37207 17.9001L8.37207 7.37039Z" fill="#EDA12F"/>
</svg>
