<svg width="25" height="25" viewBox="0 0 25 25" fill="none" xmlns="http://www.w3.org/2000/svg">
<path d="M13.5 9C13.2 9 13 8.8 13 8.5V4.5C13 4.2 13.2 4 13.5 4C13.8 4 14 4.2 14 4.5V8.5C14 8.8 13.8 9 13.5 9Z" fill="white"/>
<path opacity="0.3" d="M13.5 21C13.2 21 13 20.8 13 20.5V16.5C13 16.2 13.2 16 13.5 16C13.8 16 14 16.2 14 16.5V20.5C14 20.8 13.8 21 13.5 21Z" fill="white"/>
<path opacity="0.3" d="M15.5001 9.50015C15.4001 9.50015 15.3501 9.50015 15.2501 9.45015C15.0501 9.30015 14.9501 9.05015 15.1001 8.80015L17.1001 5.35015C17.2501 5.15015 17.5001 5.05015 17.7501 5.20015C17.9501 5.35015 18.0501 5.60015 17.9001 5.85015L15.9001 9.30015C15.8001 9.40015 15.6501 9.50015 15.5001 9.50015Z" fill="white"/>
<path opacity="0.3" d="M9.50005 19.9001C9.40005 19.9001 9.35005 19.9001 9.25005 19.8501C9.05005 19.7001 8.95005 19.4501 9.10005 19.2001L11.1001 15.7501C11.2501 15.5501 11.5001 15.4501 11.7501 15.6001C11.9501 15.7501 12.0501 16.0001 11.9001 16.2501L9.90005 19.7001C9.80005 19.8001 9.65005 19.9001 9.50005 19.9001Z" fill="white"/>
<path opacity="0.93" d="M11.5001 9.49986C11.3501 9.49986 11.2001 9.39986 11.1001 9.24986L9.10005 5.79986C8.95005 5.59986 9.05005 5.29986 9.25005 5.14986C9.45005 4.99986 9.75005 5.09986 9.90005 5.29986L11.9001 8.74986C12.0501 8.94986 11.9501 9.24986 11.7501 9.39986C11.6501 9.49986 11.6001 9.49986 11.5001 9.49986Z" fill="white"/>
<path opacity="0.3" d="M17.5001 19.9C17.3501 19.9 17.2001 19.8 17.1001 19.65L15.1001 16.2C14.9501 16 15.0501 15.7 15.2501 15.55C15.4501 15.4 15.7501 15.5 15.9001 15.7L17.9001 19.15C18.0501 19.35 17.9501 19.65 17.7501 19.8C17.6501 19.85 17.6001 19.9 17.5001 19.9Z" fill="white"/>
<path opacity="0.65" d="M9.5 13H5.5C5.2 13 5 12.8 5 12.5C5 12.2 5.2 12 5.5 12H9.5C9.8 12 10 12.2 10 12.5C10 12.8 9.8 13 9.5 13Z" fill="white"/>
<path opacity="0.3" d="M21.5 13H17.5C17.2 13 17 12.8 17 12.5C17 12.2 17.2 12 17.5 12H21.5C21.8 12 22 12.2 22 12.5C22 12.8 21.8 13 21.5 13Z" fill="white"/>
<path opacity="0.86" d="M10.0502 10.9501C9.95015 10.9501 9.90015 10.9501 9.80015 10.9001L6.35015 8.90005C6.15015 8.75005 6.05015 8.50005 6.20015 8.25005C6.35015 8.05005 6.60015 7.95005 6.85015 8.10005L10.3002 10.1001C10.5002 10.2501 10.6002 10.5001 10.4502 10.7501C10.3502 10.9001 10.2002 10.9501 10.0502 10.9501Z" fill="white"/>
<path opacity="0.3" d="M20.4501 16.9501C20.3501 16.9501 20.3001 16.9501 20.2001 16.9001L16.7501 14.9001C16.5501 14.7501 16.4501 14.5001 16.6001 14.2501C16.7501 14.0501 17.0001 13.9501 17.2501 14.1001L20.7001 16.1001C20.9001 16.2501 21.0001 16.5001 20.8501 16.7501C20.7501 16.9001 20.6001 16.9501 20.4501 16.9501Z" fill="white"/>
<path opacity="0.44" d="M6.54986 16.95C6.39986 16.95 6.24986 16.85 6.14986 16.7C5.99986 16.5 6.09986 16.2 6.29986 16.05L9.74986 14.05C9.94986 13.9 10.2499 14 10.3999 14.2C10.5499 14.4 10.4499 14.7 10.2499 14.85L6.79986 16.85C6.74986 16.95 6.64986 16.95 6.54986 16.95Z" fill="white"/>
<path opacity="0.3" d="M16.9498 10.95C16.7998 10.95 16.6498 10.85 16.5498 10.7C16.3998 10.5 16.4998 10.2 16.6998 10.05L20.1498 8.05001C20.3498 7.90001 20.6498 8.00001 20.7998 8.20001C20.9498 8.40001 20.8498 8.70001 20.6498 8.85001L17.1998 10.85C17.0998 10.95 17.0498 10.95 16.9498 10.95Z" fill="white"/>
</svg>
